<svg width="704" height="704" viewBox="0 0 704 704" fill="none" xmlns="http://www.w3.org/2000/svg">
<path d="M452.713 338.835C405.426 366.995 347.74 333.816 350.45 333.238C439.844 313.801 447.743 257.404 447.743 257.404C429.897 213.798 381.25 227.836 381.25 227.836C379.842 289.717 306.19 293.202 306.19 293.202C301.459 273.124 301.719 226.245 301.719 226.245C279.396 210.637 274.876 217.261 274.876 217.261C281.916 155.309 310.266 135.337 310.266 135.337C314.99 130.937 336.103 121.046 346.944 119.765L347.332 121.482C347.332 121.482 336.37 148.854 357.378 150.656C375.055 152.205 385.101 130.444 387.84 123.538C410.825 130.662 432.762 146.608 447.356 173.43C481.88 236.889 452.713 338.835 452.713 338.835Z" fill="#842DFF"/>
<path d="M457.825 312.132L572.725 388.164C595.007 402.906 592.141 436.459 567.706 447.209L433.242 506.387C420.736 511.89 407.025 514.081 393.428 512.751C379.831 511.42 366.806 506.612 355.604 498.791L303.966 462.69" stroke="white" stroke-width="4.21" stroke-miterlimit="10"/>
<path d="M457.826 336.653L453.961 334.09L572.747 412.671C595.028 427.412 592.163 460.965 567.727 471.715L433.263 530.893C420.758 536.395 407.047 538.587 393.45 537.256C379.853 535.926 366.828 531.119 355.626 523.297L289.971 476.538" stroke="white" stroke-width="4.21" stroke-miterlimit="10"/>
<path d="M557.814 443.013L434.227 497.411C422.734 502.466 410.134 504.479 397.638 503.256C385.142 502.033 373.171 497.615 362.877 490.428L315.519 457.157C322.039 452.16 329.345 448.281 337.139 445.681C356.661 439.05 375.712 431.108 394.163 421.907C408.169 414.978 420.471 405.042 430.193 392.808C439.913 380.573 446.813 366.343 450.398 351.134C452.876 340.609 455.052 329.965 456.833 319.264L565.601 391.164C586.073 404.709 580.265 433.143 557.814 443.013Z" fill="#3FBDF1"/>
<path d="M239.361 600.667C239.361 600.667 261.03 591.684 265.183 584.911C265.183 584.911 265.965 600.287 261.91 605.539C257.855 610.79 233.623 624.673 232.321 622.934C231.018 621.196 239.361 600.667 239.361 600.667Z" fill="#3FBDF1"/>
<path d="M172.657 637.303C172.657 637.303 176.6 642.653 190.588 637.303C204.577 631.953 235.011 612.248 235.011 612.248C235.011 612.248 226.521 635.043 223.444 637.549C220.368 640.056 162.245 668.525 162.245 668.525C162.245 668.525 136.261 672.221 146.053 653.741L172.657 637.303Z" fill="#3FBDF1"/>
<path d="M256.306 339.455C224.274 351.923 190.376 381.216 200.127 462.338L202.837 483.416" stroke="white" stroke-width="4.21" stroke-miterlimit="10"/>
<path d="M256.256 286.479C261.494 279.002 266.224 270.92 269.125 262.219C272.025 253.517 272.173 244.091 272.983 234.939C275.137 210.397 278.474 190.101 287.943 167.242C296.145 147.46 320.918 121.975 345.565 119.56L347.783 119.37" stroke="white" stroke-width="4.21" stroke-miterlimit="10"/>
<path d="M318.208 337.66C318.088 337.315 317.969 336.991 317.842 336.653" stroke="white" stroke-width="4.21" stroke-miterlimit="10"/>
<path d="M306.189 291.681C304.978 284.564 304.077 277.665 303.373 271.117C303.375 270.994 303.361 270.871 303.331 270.751C299.642 234.193 303.373 207.595 303.373 207.595" stroke="white" stroke-width="4.21" stroke-miterlimit="10"/>
<path d="M392.296 69.7943L386.664 71.9911C386.664 72.1671 386.664 74.3636 386.425 77.44C386.163 81.1142 385.579 84.7588 384.679 88.3309C385.179 85.8951 385.904 80.1082 382.722 76.0813C382.672 75.999 382.615 75.9208 382.553 75.849C380.441 73.3076 377.836 74.3143 375.745 76.0602C374.301 77.2817 373.04 78.7044 372 80.2842C372.365 75.5808 371.521 70.8626 369.55 66.577C368.264 63.6535 366.559 60.9333 364.488 58.5022C367.677 69.4846 363.587 76.6727 363.587 76.6727C352.781 79.2141 345.283 78.672 339.693 77.7076C334.984 73.3146 336.617 57.4954 336.617 57.4954C331.879 61.3674 333.019 76.3488 333.019 76.3488C332.414 72.4395 332.488 68.4548 333.238 64.5706C330.884 67.8989 329.524 71.8271 329.316 75.8983L329.232 75.856C328.905 75.7723 328.583 75.6709 328.267 75.5533C327.687 75.2478 327.125 74.9099 326.585 74.5396L323.466 72.4276C328.176 48.3998 344.642 33.2919 370.085 37.7271C371.746 38.0134 373.38 38.4372 374.971 38.9943C391.733 47.731 392.296 69.7943 392.296 69.7943Z" fill="#3FBDF1"/>
<path d="M247.104 303.804L240.691 284.5C240.549 284.051 240.295 283.645 239.952 283.321C239.61 282.997 239.19 282.766 238.733 282.649C238.677 282.649 238.614 282.649 238.55 282.607C238.487 282.564 238.473 282.607 238.431 282.607C238.284 282.597 238.135 282.597 237.987 282.607C237.276 282.609 236.592 282.881 236.072 283.367C235.552 283.848 235.136 284.431 234.852 285.081C234.567 285.73 234.419 286.432 234.418 287.14C234.419 287.695 234.507 288.246 234.678 288.774C236.086 292.85 238.593 300.207 239.782 303.558" fill="#3FBDF1"/>
<path d="M245.654 303.804L238.741 282.649C238.684 282.649 238.621 282.649 238.558 282.607C238.494 282.564 238.48 282.607 238.438 282.607L234.812 281.903C232.876 281.544 230.94 281.156 229.004 280.797C226.681 280.333 224.344 279.946 222.028 279.389C221.481 279.235 220.919 279.14 220.352 279.108C219.638 279.106 218.952 279.381 218.437 279.875C217.912 280.356 217.493 280.941 217.208 281.594C216.923 282.246 216.779 282.951 216.783 283.663C216.779 284.211 216.867 284.756 217.043 285.275C218.599 289.837 221.563 298.468 222.506 301.087L245.654 303.804Z" fill="#3FBDF1"/>
<path d="M382.342 207.588C381.638 215.424 381.272 224.907 381.026 236.826C381.026 262.17 353.007 283.156 328.107 287.957L282.445 298.271C276.412 299.439 271.068 295.673 266.872 293.174C262.557 290.604 258.136 287.542 255.024 285.268C250.546 281.994 241.922 284.627 243.69 292.434C244.07 293.919 244.789 295.296 245.79 296.457C246.789 297.618 248.044 298.533 249.455 299.13C250.251 299.486 251.069 299.787 251.906 300.031C252.217 300.109 252.494 300.288 252.694 300.54C252.893 300.791 253.004 301.101 253.008 301.422C253.013 301.743 252.912 302.057 252.72 302.315C252.528 302.573 252.257 302.759 251.948 302.847C247.992 304.212 240.747 305.022 229.06 300.735C214.086 295.222 212.925 329.394 233.398 335.343H233.475C252.335 341.046 272.632 340.314 292.125 339.497C314.261 338.658 336.289 335.971 357.977 331.464C369.009 329.127 380.343 326.698 390.438 321.707C407.827 313.111 420.359 303.255 432.278 287.915C445.654 270.716 451.362 248.153 454.587 226.998C458.276 202.794 453.179 182.357 440.204 161.526L439.725 160.765" stroke="white" stroke-width="4.21" stroke-miterlimit="10"/>
<path d="M247.104 303.804L240.691 284.5C240.549 284.051 240.295 283.645 239.952 283.321C239.61 282.997 239.19 282.766 238.733 282.649C238.677 282.649 238.614 282.649 238.55 282.607C238.487 282.564 238.473 282.607 238.431 282.607C238.284 282.597 238.135 282.597 237.987 282.607C237.276 282.609 236.592 282.881 236.072 283.367C235.552 283.848 235.136 284.431 234.852 285.081C234.567 285.73 234.419 286.432 234.418 287.14C234.419 287.695 234.507 288.246 234.678 288.774C236.086 292.85 238.593 300.207 239.782 303.558" stroke="white" stroke-width="4.21" stroke-miterlimit="10"/>
<path d="M238.741 282.649C238.684 282.649 238.621 282.649 238.558 282.607C238.494 282.564 238.48 282.607 238.438 282.607L234.812 281.903C232.876 281.544 230.94 281.156 229.004 280.797C226.681 280.333 224.344 279.946 222.028 279.389C221.481 279.235 220.919 279.14 220.352 279.108C219.638 279.106 218.952 279.381 218.437 279.875C217.912 280.356 217.493 280.941 217.208 281.594C216.923 282.246 216.779 282.951 216.783 283.663C216.779 284.211 216.867 284.756 217.043 285.275C218.599 289.837 221.563 298.468 222.506 301.087" stroke="white" stroke-width="4.21" stroke-miterlimit="10"/>
<path d="M327.129 75.2084C327.129 84.3604 328.91 93.1111 333.303 101.193C336.823 107.684 341.991 114.224 349.383 116.371C351.021 116.844 352.718 117.081 354.423 117.075C366.969 117.019 368.926 102.157 368.926 102.157" stroke="white" stroke-width="4.21" stroke-miterlimit="10"/>
<path d="M386.003 80.5165V80.5587C385.421 85.0995 384.421 89.5777 383.018 93.9347C381.34 99.1323 380.944 104.659 381.863 110.042L383.813 121.384C383.902 121.889 384.131 122.359 384.475 122.74C384.818 123.121 385.263 123.398 385.756 123.538C410.509 130.726 432.481 146.587 445.265 169.488C461.211 198.084 464.118 232.524 462.83 264.627C461.697 292.456 457.198 320.123 450.813 347.206C446.909 363.758 439.4 379.245 428.819 392.56C418.239 405.874 404.849 416.688 389.607 424.23C369.549 434.246 348.834 442.89 327.606 450.102C316.368 453.824 306.101 460.003 297.551 468.19C289.001 476.377 282.383 486.367 278.178 497.432L228.293 630.08C226.459 634.977 222.843 639 218.169 641.344L170.367 665.357C164.331 668.379 157.445 669.253 150.845 667.835C149.134 667.467 147.574 666.59 146.367 665.322C145.161 664.053 144.365 662.451 144.082 660.723C143.8 658.995 144.044 657.223 144.783 655.636C145.523 654.049 146.722 652.722 148.227 651.827L172.641 637.303L206.215 466.147C208.578 450.877 214.219 436.3 222.751 423.418C231.284 410.536 242.505 399.655 255.643 391.523C257.394 390.455 259.22 389.514 261.106 388.707L333.885 357.104" stroke="white" stroke-width="4.21" stroke-miterlimit="10"/>
<path d="M365.995 36.0734C362.104 35.146 358.075 34.9408 354.111 35.4679C353.949 35.4715 353.786 35.4856 353.625 35.5102" stroke="white" stroke-width="4.21" stroke-miterlimit="10"/>
<path d="M348.367 119.786C348.367 119.786 335.491 149.304 358.519 150.762C379.181 152.085 386.763 124.01 386.763 124.01" stroke="white" stroke-width="4.21" stroke-miterlimit="10"/>
<path d="M384.384 89.408C384.532 88.8659 386.75 80.8614 382.511 75.8208C378.273 70.7801 372.529 79.4252 371.951 80.2912C373.078 67.8799 364.454 58.4674 364.454 58.4674C367.636 69.4569 363.539 76.6374 363.539 76.6374C347.79 80.3264 339.124 77.5174 332.978 76.3065C332.373 72.3993 332.45 68.4172 333.203 64.5359C330.843 67.8557 329.483 71.7812 329.282 75.8489H329.183C326.844 75.2273 324.626 74.2156 322.622 72.8569L319.503 70.7449C324.22 46.7247 340.68 31.6028 366.122 36.038C391.565 40.4732 392.276 69.7314 392.276 69.7314L386.609 71.9347C386.609 71.9347 386.658 81.5936 384.384 89.408Z" stroke="white" stroke-width="4.21" stroke-miterlimit="10"/>
<path d="M336.999 88.1549V99.8343C337 99.9765 337.034 100.117 337.099 100.243C337.165 100.369 337.258 100.478 337.373 100.562C337.489 100.646 337.622 100.701 337.762 100.724C337.902 100.747 338.046 100.736 338.181 100.693C339.1 100.389 339.945 99.8948 340.659 99.2429" stroke="white" stroke-width="4.21" stroke-miterlimit="10"/>
<path d="M330.013 97.021C333.697 95.5849 335.064 90.2683 333.067 85.146C331.07 80.0237 326.465 77.0359 322.781 78.4721C319.097 79.9082 317.729 85.2248 319.726 90.3471C321.723 95.4694 326.329 98.4572 330.013 97.021Z" stroke="white" stroke-width="4.21" stroke-miterlimit="10"/>
<path d="M352.183 100.361C355.867 98.9246 357.234 93.608 355.238 88.4857C353.24 83.3634 348.635 80.3756 344.951 81.8118C341.267 83.248 339.899 88.5653 341.896 93.6869C343.893 98.8092 348.499 101.798 352.183 100.361Z" stroke="white" stroke-width="4.21" stroke-miterlimit="10"/>
<path d="M333.899 88.7603C333.899 88.7603 336.082 86.2682 340.658 89.1898" stroke="white" stroke-width="4.21" stroke-miterlimit="10"/>
<path d="M347.333 115.632C347.333 115.632 348.917 120.996 353.578 138.385" stroke="white" stroke-width="4.21" stroke-miterlimit="10"/>
<path d="M230.651 623.814L258.107 608.994C259.68 608.142 261.021 606.917 262.014 605.428C263.007 603.938 263.621 602.229 263.802 600.448C268.364 555.638 266.97 527.31 266.97 527.31" stroke="white" stroke-width="4.21" stroke-miterlimit="10"/>
<path d="M205.731 394.015L100.067 320.172" stroke="white" stroke-width="4.21" stroke-miterlimit="10"/>
<path d="M199.747 414.36L100.067 344.693" stroke="white" stroke-width="4.21" stroke-miterlimit="10"/>
<path d="M603.933 274.004V334.456C603.933 337.228 603.128 339.94 601.616 342.264C600.104 344.587 597.949 346.421 595.415 347.544L520.439 380.744L497.517 415.578C496.927 416.442 496.078 417.095 495.092 417.445C494.106 417.794 493.034 417.82 492.032 417.52C491.03 417.219 490.15 416.608 489.519 415.775C488.887 414.94 488.537 413.927 488.52 412.882V394.888L480.832 398.288C479.122 399.036 477.253 399.347 475.393 399.193C473.534 399.04 471.741 398.427 470.176 397.409C468.612 396.391 467.325 395.001 466.431 393.363C465.538 391.725 465.065 389.89 465.055 388.024V337.54C465.056 331.243 466.898 325.084 470.354 319.821C473.81 314.557 478.729 310.419 484.507 307.915L587.544 263.247C589.328 262.472 591.277 262.153 593.214 262.32C595.152 262.486 597.018 263.132 598.644 264.199C600.269 265.266 601.604 266.722 602.528 268.433C603.451 270.144 603.934 272.059 603.933 274.004Z" fill="#D7E8F0"/>
<path d="M511.96 353.017C515.653 345.893 514.654 338.047 509.728 335.494C504.802 332.941 497.815 336.646 494.121 343.771C490.429 350.896 491.428 358.741 496.354 361.295C501.28 363.848 508.267 360.142 511.96 353.017Z" fill="white"/>
<path d="M543.981 339.312C547.674 332.187 546.674 324.342 541.748 321.789C536.822 319.235 529.836 322.941 526.143 330.065C522.45 337.191 523.449 345.036 528.374 347.589C533.3 350.143 540.288 346.437 543.981 339.312Z" fill="white"/>
<path d="M574.924 324.512C578.617 317.388 577.618 309.542 572.692 306.989C567.766 304.436 560.779 308.142 557.086 315.266C553.393 322.39 554.392 330.237 559.318 332.79C564.244 335.343 571.231 331.637 574.924 324.512Z" fill="white"/>
</svg>
