<svg width="635" height="635" viewBox="0 0 635 635" fill="none" xmlns="http://www.w3.org/2000/svg">
<path d="M133.267 243.205C131.489 246.177 127.768 247.434 124.567 248.075C120.478 248.914 116.249 249.136 112.109 249.504L109.702 250.095C109.246 250.235 108.823 250.464 108.456 250.769C108.09 251.073 107.787 251.447 107.565 251.869C107.343 252.291 107.206 252.752 107.163 253.227C107.121 253.702 107.172 254.18 107.314 254.635C108.803 259.759 110.852 264.704 113.423 269.38L109.613 273.19C108.534 271.729 108.483 269.17 107.035 269.418C105.644 268.027 103.993 267.348 102.285 269.208C98.9451 272.86 99.4848 280.448 104.393 282.543L103.295 288.011C102.916 289.922 101.886 291.643 100.381 292.881C98.8759 294.119 96.988 294.796 95.0398 294.799L95.8844 288.328C90.1694 291.217 83.686 284.969 84.1369 279.819C84.429 276.289 83.6289 273.85 81.019 271.291C80.8476 271.12 81.8953 270.485 81.7366 270.313C81 268.084 80.8984 265.481 81.6286 264.008C82.8986 261.379 86.6388 259.842 84.9179 256.972C84.1623 255.721 83.6111 254.358 83.286 252.933C82.9399 251.045 83.0034 249.104 83.4714 247.242C83.9388 245.38 84.8005 243.639 85.9974 242.138C88.5374 239.09 92.6649 239.909 96.0368 238.83C100.145 237.56 102.044 233.159 106.343 231.8C108.483 231.121 110.464 231.432 112.604 231.921C114.414 232.34 116.204 232.81 117.982 233.369C119.76 233.928 121.322 234.391 123.062 233.871C125.361 233.236 127.133 231.089 129.641 231.07C130.892 231.042 132.118 231.433 133.121 232.181C134.975 235.515 134.988 240.354 133.267 243.205Z" fill="#3FBDF1"/>
<path d="M54.6805 329.184C54.6805 329.184 -14.4519 252.933 87.3576 214.884C93.2612 212.719 99.4143 211.307 105.671 210.68C121.921 208.953 157.843 202.813 161.983 182.074" stroke="#CCDDE2" stroke-width="4.11" stroke-miterlimit="10"/>
<path d="M344.887 222.441V222.421" stroke="#CCDDE2" stroke-width="4.11" stroke-miterlimit="10"/>
<path d="M163.493 359.735V359.715" stroke="black" stroke-width="4.11" stroke-miterlimit="10"/>
<path d="M109.442 272.682C108.765 271.512 107.96 270.421 107.042 269.43C105.651 268.04 104 267.36 102.292 269.221C98.9521 272.872 99.4919 280.46 104.4 282.556L103.302 288.023C102.923 289.935 101.893 291.655 100.388 292.893C98.8829 294.131 96.9951 294.809 95.0469 294.811" stroke="black" stroke-width="4.11" stroke-linecap="round" stroke-linejoin="round"/>
<path d="M91.9736 319.005C92.253 316.884 92.9452 311.315 93.6119 306.007C94.2469 301.085 94.8121 296.348 95.0343 294.786L95.8852 288.328" stroke="black" stroke-width="4.11" stroke-linecap="round" stroke-linejoin="round"/>
<path d="M131.178 255.372C131.178 255.372 123.069 255.772 121.501 262.484" stroke="black" stroke-width="4.11" stroke-miterlimit="10"/>
<path d="M134.126 273.107C136.336 273.05 139.206 272.726 140.247 270.485L134.659 264.319C133.296 262.808 132.489 260.877 132.373 258.845C132.151 255.435 132.551 250.025 129.287 246.424" stroke="black" stroke-width="4.11" stroke-miterlimit="10"/>
<path d="M129.347 264.571C130.262 263.559 130.308 262.11 129.448 261.334C128.59 260.557 127.152 260.749 126.238 261.761C125.323 262.772 125.277 264.222 126.136 264.998C126.995 265.774 128.432 265.583 129.347 264.571Z" fill="black"/>
<path d="M128.796 313.607L124.586 293.198" stroke="black" stroke-width="4.11" stroke-miterlimit="10"/>
<path d="M235.522 405.46L208.388 427.647C241.034 477.431 216.326 486.569 216.326 486.569C211.534 487.486 206.694 488.137 201.829 488.518C178.232 490.22 154.026 484.13 134.576 470.49C95.2061 442.868 60.9164 387.585 79.2041 339.452C80.7433 335.381 82.6229 331.446 84.8238 327.692C86.7206 324.428 89.1355 321.494 91.974 319.005C96.9422 314.656 103.06 311.833 109.594 310.877C116.127 309.921 122.798 310.871 128.804 313.614C131.103 314.663 133.278 315.967 135.287 317.5C145.568 325.368 154.915 336.55 162.973 348.285C170.128 358.897 176.567 369.975 182.246 381.444C183.814 384.575 185.236 387.534 186.494 390.246C197.892 385.635 207.449 377.806 216.339 369.348C205.588 389.414 235.522 405.46 235.522 405.46Z" fill="#FF10F5"/>
<path d="M216.535 421.691C216.014 422.091 215.474 422.51 214.935 422.91" stroke="black" stroke-width="4.11" stroke-miterlimit="10"/>
<path d="M136.317 337.344C143.513 351.123 150.71 364.928 157.907 378.758C163.336 389.198 172.512 395.643 185.434 390.696C199.493 385.312 210.834 375.018 221.324 364.528C231.815 354.038 242.444 344.005 257.589 341.3C277.166 337.801 295.689 348.469 309.024 361.95C310.05 362.978 310.699 364.322 310.866 365.765C311.033 367.208 310.709 368.665 309.945 369.9C309.455 370.69 308.8 371.366 308.026 371.88C307.251 372.394 306.375 372.736 305.457 372.881C304.538 373.026 303.599 372.972 302.704 372.722C301.809 372.471 300.977 372.031 300.268 371.431C293.949 366.039 283.669 358.242 276.519 358.14" stroke="black" stroke-width="4.11" stroke-miterlimit="10"/>
<path d="M257.009 376.638C259.206 378.104 262.254 379.73 264.794 379.73" stroke="black" stroke-width="4.11" stroke-miterlimit="10"/>
<path d="M285.166 360.813C289.852 363.131 291.56 369.913 288.252 373.964C284.057 379.169 278.801 383.421 272.834 386.436C266.306 389.693 262.115 387.706 255.689 383.73" stroke="black" stroke-width="4.11" stroke-miterlimit="10"/>
<path d="M274.32 366.89C274.32 366.89 283.604 369.189 283.356 378.2C283.339 378.584 283.271 378.964 283.153 379.33" stroke="black" stroke-width="4.11" stroke-miterlimit="10"/>
<path d="M267.762 372.567C267.762 372.567 280.214 380.613 274.29 385.674" stroke="black" stroke-width="4.11" stroke-miterlimit="10"/>
<path d="M508.304 404.101C493.635 444.417 452.57 445.554 447.871 445.554C449.839 441.408 450.373 434.124 446.061 421.361C448.95 417.143 450.47 412.138 450.416 407.026C450.363 401.914 448.739 396.943 445.762 392.786C445.82 392.735 445.851 392.665 445.902 392.614C447.956 392.489 449.993 392.181 451.992 391.693C459.078 390.004 473.048 386.296 484.136 381.076C491.654 377.527 500.423 383.216 499.782 391.516C499.782 391.624 499.782 391.725 499.744 391.846C501.212 391.845 502.658 392.198 503.96 392.876C505.262 393.555 506.381 394.537 507.222 395.74C508.062 396.944 508.599 398.332 508.787 399.788C508.976 401.244 508.81 402.724 508.304 404.101Z" fill="#3FBDF1"/>
<path d="M320.072 498.659C315.131 507.136 307.442 514.356 300.012 520.656C273.856 542.792 239.687 554.031 205.397 554.469C170.993 554.031 136.696 542.754 110.42 520.814C27.3938 451.485 42.3989 369.627 55.8291 331.724C56.3021 330.413 56.9425 329.169 57.7341 328.022C58.7842 326.486 60.1475 325.189 61.7344 324.218C63.3213 323.246 65.0957 322.621 66.9417 322.383C73.9902 323.355 80.391 329.203 79.2607 338.258C79.2607 338.607 79.121 339.09 79.0892 339.439C60.8139 387.572 95.1166 442.855 134.461 470.478C152.311 483.006 174.168 489.166 195.885 488.766H196.132C197.995 488.728 199.855 488.641 201.714 488.505C213.912 487.616 225.768 484.695 237.509 481.159C251.289 477.037 264.916 472.04 278.682 468.541C283.521 467.309 288.373 466.122 293.249 465.01C296.064 464.433 298.942 464.235 301.809 464.42C318.719 465.563 330.6 480.6 320.072 498.659Z" fill="#D7E8F0"/>
<path d="M324.251 498.659C319.311 507.136 311.615 514.356 304.185 520.656C276.988 543.693 241.104 554.946 205.379 554.469C170.975 554.031 136.679 542.754 110.402 520.814C27.3949 451.485 42.3999 369.627 55.8302 331.724C56.3032 330.413 56.9435 329.169 57.7352 328.022C58.7853 326.486 60.1485 325.189 61.7355 324.218C63.3223 323.246 65.097 322.621 66.9429 322.383C73.9914 323.355 80.3922 329.203 79.2619 338.258C79.2619 338.607 79.1222 339.09 79.0905 339.439C60.8149 387.572 95.1179 442.855 134.462 470.478C152.312 483.006 174.169 489.166 195.886 488.766H196.134C199.406 488.817 202.659 488.73 205.894 488.506C218.092 487.617 229.941 484.695 241.689 481.159C255.468 477.037 269.095 472.04 282.862 468.541C287.694 467.309 292.552 466.122 297.422 465.01C298.87 464.715 300.336 464.517 301.81 464.42C320.822 463.144 335.63 479.139 324.251 498.659Z" fill="#D7E8F0"/>
<path d="M211.112 554.355L219.468 566.179C219.468 566.179 270.033 568.147 297.707 591.376C302.825 595.675 299.764 604.025 293.084 604.025C291.409 604.031 289.786 603.441 288.505 602.361C281.971 596.875 257.009 579.628 200.545 579.107C145.529 578.593 124.428 595.617 118.592 601.821C117.926 602.522 117.124 603.079 116.236 603.458C115.347 603.837 114.389 604.03 113.423 604.025H112.337C105.479 604.025 102.577 595.363 107.994 591.16C131.095 573.196 182.88 567.468 182.88 567.468L191.719 554.133" fill="#FF10F5"/>
<path d="M434.892 488.791C434.892 488.791 450.38 503.504 445.548 549.116C445.196 552.373 444.063 555.497 442.246 558.222L440.563 560.762C437.804 564.895 433.643 567.89 428.847 569.195C418.732 571.957 400.38 578.358 389.045 590.487C384.257 595.624 387.82 603.993 394.843 603.993C396.153 603.997 397.443 603.676 398.598 603.06C399.754 602.444 400.739 601.551 401.466 600.462C406.082 593.515 420.059 578.764 453.771 579.076C491.795 579.425 507.111 594.544 512.019 601.059C512.698 601.968 513.578 602.706 514.591 603.215C515.604 603.724 516.722 603.99 517.855 603.993C519.276 603.99 520.665 603.573 521.853 602.792C523.04 602.011 523.974 600.901 524.54 599.597C525.105 598.293 525.278 596.852 525.037 595.452C524.796 594.051 524.152 592.752 523.183 591.712C508.355 575.602 490.22 569.595 480.212 567.366C475.184 566.282 470.743 563.359 467.76 559.168C465.476 555.936 464.178 552.112 464.02 548.157C463.461 534.016 463.169 499.688 472.751 488.804" fill="#FF10F5"/>
<path d="M237.636 481.178C264.871 467.957 294.431 459.283 323.495 451.117C352.743 442.9 382.277 435.731 411.899 428.993C423.736 426.307 435.68 423.913 447.459 420.884" stroke="black" stroke-width="4.11" stroke-miterlimit="10"/>
<path d="M263.188 379.546H263.207H263.22" stroke="black" stroke-width="4.11" stroke-miterlimit="10"/>
<path d="M260.135 377.825C258.427 379.514 252.331 388.537 250.8 390.157C242.394 399.167 233.462 407.674 224.054 415.633C221.686 417.601 219.177 419.633 216.536 421.691C216.015 422.091 215.475 422.51 214.936 422.91C197.029 436.499 173.661 449.58 152.071 441.198C151.499 440.988 150.94 440.747 150.388 440.5C117.273 425.672 94.1268 388.537 92.1075 352.692C92.0376 351.523 91.9995 350.361 91.9868 349.212C91.809 339.414 93.2568 329.616 102.655 324.447" stroke="black" stroke-width="4.11" stroke-miterlimit="10"/>
<path d="M79.2543 339.312L79.3876 338.271C81.4958 321.367 57.4929 315.665 51.7969 331.724C38.373 369.621 23.3616 451.46 106.407 520.802C160.007 565.575 246.786 565.887 300.183 520.656C307.613 514.363 315.303 507.13 320.249 498.653C332.765 477.215 313.652 460.026 292.094 465.303" stroke="black" stroke-width="4.11" stroke-miterlimit="10"/>
<path d="M211.112 554.355L219.468 566.179C219.468 566.179 270.033 568.147 297.707 591.376C302.825 595.675 299.764 604.025 293.084 604.025C291.409 604.031 289.786 603.441 288.505 602.361C281.971 596.875 257.009 579.628 200.545 579.107C145.529 578.593 124.428 595.617 118.592 601.821C117.926 602.522 117.124 603.079 116.236 603.458C115.347 603.837 114.389 604.03 113.423 604.025H112.337C105.479 604.025 102.577 595.363 107.994 591.16C131.095 573.196 182.88 567.468 182.88 567.468L191.719 554.133" stroke="black" stroke-width="4.11" stroke-miterlimit="10"/>
<path d="M182.88 380.429C204.076 374.714 212.807 344.811 216.325 324.707" stroke="black" stroke-width="4.11" stroke-miterlimit="10"/>
<path d="M162.954 348.304C168.842 347.533 174.435 345.265 179.196 341.716C183.958 338.167 187.73 333.457 190.151 328.035C190.658 326.956 190.904 325.774 190.871 324.583C190.838 323.392 190.526 322.225 189.961 321.177C187.649 316.897 184.201 311.937 185.02 306.807C185.611 303.187 188.589 300.641 192.005 299.822C193.737 299.368 195.56 299.399 197.276 299.91C198.304 300.202 199.255 300.718 200.058 301.422C200.862 302.126 201.499 303 201.924 303.981C202.756 305.93 201.765 307.861 200.235 309.131C198.705 310.401 196.914 310.852 195.047 311.36C194.806 311.429 194.145 311.569 193.415 311.709" stroke="black" stroke-width="4.11" stroke-miterlimit="10"/>
<path d="M447.434 420.872C447.434 420.872 489.217 412.121 497.066 399.517C498.537 397.219 499.454 394.61 499.746 391.897" stroke="black" stroke-width="4.11" stroke-miterlimit="10"/>
<path d="M241.833 399.345C314.712 391.605 396.969 392.748 396.969 392.748H443.134C446.118 392.752 449.091 392.402 451.992 391.706C459.079 390.017 473.049 386.315 484.136 381.089C491.654 377.539 500.424 383.229 499.782 391.535C499.782 391.636 499.782 391.744 499.744 391.865C501.209 391.865 502.653 392.219 503.952 392.895C505.25 393.572 506.367 394.552 507.207 395.752C508.047 396.952 508.585 398.337 508.776 399.79C508.968 401.242 508.806 402.719 508.304 404.095C492.734 446.888 447.433 445.548 447.433 445.548C441.642 445.719 435.863 445.948 430.066 446.246C378.993 448.729 328.37 455.898 278.815 468.554C265.048 472.053 251.421 477.044 237.642 481.171C225.894 484.721 214.026 487.623 201.828 488.512C178.231 490.22 154.025 484.124 134.575 470.484C91.9726 440.588 55.3079 378.257 84.8225 327.66C95.2428 309.804 118.839 304.914 135.286 317.5C158.482 335.248 177.012 369.824 186.518 390.22" stroke="black" stroke-width="4.11" stroke-miterlimit="10"/>
<path d="M507.338 488.791H405.916" stroke="black" stroke-width="4.11" stroke-miterlimit="10"/>
<path d="M385.445 468.306C385.46 462.877 387.623 457.675 391.461 453.835C395.299 449.996 400.501 447.831 405.93 447.815H507.365C512.795 447.829 517.998 449.993 521.838 453.833C525.678 457.672 527.841 462.876 527.856 468.306" stroke="black" stroke-width="4.11" stroke-miterlimit="10"/>
<path d="M529.85 475.571C529.855 477.309 529.516 479.031 528.853 480.637C528.19 482.244 527.216 483.704 525.987 484.932C524.757 486.161 523.297 487.135 521.69 487.797C520.083 488.459 518.361 488.797 516.623 488.791H396.608C393.604 488.507 390.831 487.055 388.886 484.748C386.941 482.441 385.979 479.462 386.207 476.454C386.435 473.445 387.834 470.645 390.105 468.657C392.375 466.669 395.335 465.652 398.348 465.823H518.363C520.493 465.82 522.593 466.333 524.482 467.318C526.37 468.304 527.993 469.732 529.209 471.481C529.633 472.803 529.849 474.182 529.85 475.571Z" fill="#D7E8F0"/>
<path d="M529.849 475.571C529.855 477.309 529.516 479.031 528.853 480.637C528.19 482.244 527.215 483.704 525.986 484.932C524.757 486.161 523.297 487.135 521.69 487.797C520.083 488.459 518.361 488.797 516.622 488.791H396.607C394.847 488.83 393.096 488.516 391.458 487.869C389.819 487.222 388.327 486.254 387.068 485.022C385.809 483.79 384.808 482.319 384.125 480.696C383.443 479.072 383.091 477.329 383.091 475.567C383.091 473.806 383.443 472.062 384.125 470.439C384.808 468.815 385.809 467.344 387.068 466.112C388.327 464.88 389.819 463.913 391.458 463.266C393.096 462.618 394.847 462.305 396.607 462.344H516.622C519.416 462.342 522.139 463.226 524.4 464.867C526.661 466.508 528.344 468.824 529.208 471.481C529.633 472.803 529.849 474.182 529.849 475.571Z" stroke="black" stroke-width="4.11" stroke-miterlimit="10"/>
<path d="M216.098 324.237L215.857 326.276C215.746 327.201 215.301 328.053 214.605 328.672C213.909 329.291 213.01 329.634 212.079 329.635H198.89C197.958 329.634 197.059 329.291 196.363 328.672C195.667 328.053 195.221 327.201 195.111 326.276L193.41 311.671C194.14 311.531 194.8 311.391 195.042 311.321C196.908 310.813 198.718 310.382 200.23 309.093C201.741 307.804 202.77 305.918 201.919 303.943C201.494 302.962 200.856 302.088 200.052 301.384C199.248 300.68 198.298 300.164 197.27 299.872C195.555 299.361 193.732 299.33 192 299.783L191.6 296.304C191.541 295.772 191.595 295.234 191.757 294.724C191.921 294.215 192.189 293.745 192.545 293.347C192.902 292.947 193.338 292.628 193.826 292.409C194.315 292.19 194.843 292.076 195.378 292.075H215.616C216.15 292.076 216.678 292.191 217.165 292.411C217.653 292.63 218.088 292.95 218.444 293.348C218.799 293.747 219.067 294.216 219.23 294.726C219.393 295.235 219.446 295.772 219.387 296.304L218.918 300.272" stroke="black" stroke-width="4.11" stroke-miterlimit="10"/>
<path d="M217.857 309.347L217.837 309.487" stroke="black" stroke-width="4.11" stroke-miterlimit="10"/>
<path d="M216.865 317.735V317.678" stroke="black" stroke-width="4.11" stroke-miterlimit="10"/>
<path d="M217.056 317.735C216.999 317.726 216.941 317.726 216.884 317.735C216.804 317.726 216.723 317.726 216.643 317.735C215.82 317.738 215.028 318.05 214.424 318.609C213.821 319.168 213.448 319.933 213.382 320.754C213.316 321.574 213.56 322.389 214.066 323.038C214.572 323.687 215.304 324.122 216.116 324.257C216.466 324.326 216.827 324.326 217.177 324.257C218.761 324.003 220.209 323.204 221.266 321.996C222.675 319.678 223.654 317.125 224.155 314.458C224.164 314.432 224.164 314.403 224.155 314.376C224.543 312.411 224.69 310.407 224.593 308.407C224.593 307.55 224.485 306.699 224.384 305.867C224.19 304.475 223.554 303.183 222.57 302.18C221.585 301.177 220.305 300.518 218.916 300.298C218.847 300.298 218.764 300.298 218.694 300.26C216.027 299.93 212.287 300.939 211.595 303.949C210.96 306.667 213.906 308.997 216.326 309.207C216.326 309.207 216.961 309.29 217.856 309.347C219.647 309.467 222.625 309.448 224.593 308.407C224.883 308.257 225.155 308.076 225.406 307.867" stroke="black" stroke-width="4.11" stroke-miterlimit="10"/>
<path d="M219.838 309.493H219.399H216.015H214.523C213.514 309.496 212.544 309.885 211.813 310.581C211.082 311.276 210.645 312.225 210.592 313.233C210.542 314.212 210.858 315.174 211.477 315.934C212.097 316.694 212.976 317.198 213.945 317.348C218.326 318.052 223.33 318.199 224.187 314.274" stroke="black" stroke-width="4.11" stroke-miterlimit="10"/>
<path d="M434.892 488.791C434.892 488.791 450.38 503.504 445.548 549.116C445.196 552.373 444.063 555.497 442.246 558.222L440.563 560.762C437.804 564.895 433.643 567.89 428.847 569.195C418.732 571.957 400.38 578.358 389.045 590.487C384.257 595.624 387.82 603.993 394.843 603.993C396.153 603.997 397.443 603.676 398.598 603.06C399.754 602.444 400.739 601.551 401.466 600.462C406.082 593.515 420.059 578.764 453.771 579.076C491.795 579.425 507.111 594.544 512.019 601.059C512.698 601.968 513.578 602.706 514.591 603.215C515.604 603.724 516.722 603.99 517.855 603.993C519.276 603.99 520.665 603.573 521.853 602.792C523.04 602.011 523.974 600.901 524.54 599.597C525.105 598.293 525.278 596.852 525.037 595.452C524.796 594.051 524.152 592.752 523.183 591.712C508.355 575.602 490.22 569.595 480.212 567.366C475.184 566.282 470.743 563.359 467.76 559.168C465.476 555.936 464.178 552.112 464.02 548.157C463.461 534.016 463.169 499.688 472.751 488.804" stroke="black" stroke-width="4.11" stroke-miterlimit="10"/>
<path d="M402.697 382.181V383.21C402.697 390.252 397.02 391.465 392.117 391.585L297.242 393.795C293.083 393.897 289.584 390.265 289.495 385.718V385.528C289.495 381.083 292.772 377.368 296.874 377.273C296.874 377.273 349.953 375.774 391.051 374.644C391.838 377.133 393.743 379.051 396.131 380.556C398.109 381.739 400.395 382.304 402.697 382.181Z" stroke="black" stroke-width="4.11" stroke-miterlimit="10"/>
<path d="M453.13 281.788C453.135 282.946 452.869 284.09 452.355 285.128L409.924 372.11C409.427 373.12 408.714 374.009 407.837 374.714C406.959 375.419 405.938 375.924 404.844 376.193C403.092 376.642 401.238 376.453 399.612 375.66C398.309 375.018 397.212 374.023 396.448 372.788C395.683 371.553 395.281 370.128 395.288 368.675C395.291 368.318 395.316 367.962 395.364 367.608C395.477 366.82 395.712 366.055 396.062 365.341L438.487 278.346C439.253 276.785 440.526 275.529 442.097 274.784C443.668 274.038 445.445 273.847 447.139 274.241C448.833 274.635 450.343 275.591 451.425 276.953C452.506 278.316 453.093 280.004 453.092 281.743L453.13 281.788Z" stroke="black" stroke-width="4.11" stroke-miterlimit="10"/>
<path d="M109.621 273.202C109.57 273.025 109.5 272.853 109.443 272.682C109.386 272.51 109.303 272.313 109.252 272.123" stroke="black" stroke-width="4.11" stroke-linecap="round" stroke-linejoin="round"/>
<path d="M109.62 273.209L110.921 271.901L113.411 269.38" stroke="black" stroke-width="4.11" stroke-linecap="round" stroke-linejoin="round"/>
<path d="M124.269 276.65C124.269 276.65 125.939 281.635 132.321 281.972" stroke="black" stroke-width="4.11" stroke-miterlimit="10"/>
<path d="M95.8855 288.328C90.1705 291.217 83.6871 284.969 84.138 279.819C84.4301 276.289 83.63 273.85 81.0201 271.291C80.8487 271.12 80.6899 270.942 80.5375 270.77C79.5438 269.69 78.898 268.335 78.6827 266.882C78.4674 265.43 78.6935 263.946 79.331 262.623C80.5185 259.861 83.0775 258.242 81.2995 255.264C80.5191 253.976 79.9489 252.572 79.6104 251.104C79.2555 249.159 79.3221 247.16 79.8054 245.241C80.288 243.324 81.1764 241.532 82.4108 239.986C85.027 236.811 89.2878 237.687 92.7867 236.576C96.9967 235.236 98.9652 230.708 103.385 229.318C105.595 228.625 107.646 228.937 109.855 229.438C111.716 229.876 113.583 230.365 115.393 230.937C117.202 231.508 118.853 231.997 120.663 231.458C123.032 230.765 124.854 228.587 127.432 228.568C130.01 228.549 131.992 230.067 133.147 232.188C134.976 235.515 134.989 240.354 133.268 243.224C131.49 246.196 127.769 247.453 124.568 248.095C120.479 248.933 116.25 249.155 112.11 249.523L109.703 250.114C108.787 250.398 108.022 251.033 107.574 251.881C107.127 252.729 107.034 253.719 107.315 254.635C108.805 259.759 110.853 264.704 113.424 269.38" stroke="black" stroke-width="4.11" stroke-miterlimit="10"/>
<path d="M113.412 289.058C113.412 289.058 126.011 298.285 133.192 293.199C140.374 288.112 136.317 273.202 136.317 273.202" stroke="black" stroke-width="4.11" stroke-linecap="round" stroke-linejoin="round"/>
<path d="M202.432 285.706C202.432 285.706 197.079 282.086 200.483 278.39C203.886 274.695 199.352 269.818 199.352 269.818" stroke="black" stroke-width="4.11" stroke-miterlimit="10"/>
<path d="M207.372 286.334C207.372 286.334 210.915 283.94 208.642 281.489C206.369 279.038 209.398 275.774 209.398 275.774" stroke="black" stroke-width="4.11" stroke-miterlimit="10"/>
<path d="M231.789 251.841C270.338 251.841 301.588 220.591 301.588 182.042C301.588 143.493 270.338 112.243 231.789 112.243C193.239 112.243 161.99 143.493 161.99 182.042C161.99 220.591 193.239 251.841 231.789 251.841Z" stroke="#CCDDE2" stroke-width="4.11" stroke-miterlimit="10"/>
<path d="M231.787 220.377C252.959 220.377 270.122 203.213 270.122 182.042C270.122 160.87 252.959 143.707 231.787 143.707C210.615 143.707 193.452 160.87 193.452 182.042C193.452 203.213 210.615 220.377 231.787 220.377Z" stroke="#CCDDE2" stroke-width="4.11" stroke-miterlimit="10"/>
<path d="M231.789 188.614C235.419 188.614 238.361 185.671 238.361 182.042C238.361 178.412 235.419 175.469 231.789 175.469C228.159 175.469 225.217 178.412 225.217 182.042C225.217 185.671 228.159 188.614 231.789 188.614Z" stroke="#CCDDE2" stroke-width="4.11" stroke-miterlimit="10"/>
<path d="M245.395 160.096L235.248 176.454" stroke="#CCDDE2" stroke-width="4.11" stroke-miterlimit="10"/>
<path d="M231.788 143.707V150.527" stroke="#CCDDE2" stroke-width="4.11" stroke-miterlimit="10"/>
<path d="M270.124 182.042H263.659" stroke="#CCDDE2" stroke-width="4.11" stroke-miterlimit="10"/>
<path d="M231.788 220.383V213.754" stroke="#CCDDE2" stroke-width="4.11" stroke-miterlimit="10"/>
<path d="M193.447 182.042H199.277" stroke="#CCDDE2" stroke-width="4.11" stroke-miterlimit="10"/>
<path d="M298.684 298.094C313.028 298.094 324.656 286.466 324.656 272.123C324.656 257.779 313.028 246.151 298.684 246.151C284.34 246.151 272.713 257.779 272.713 272.123C272.713 286.466 284.34 298.094 298.684 298.094Z" fill="#3FBDF1"/>
<path d="M307.227 263.449C306.861 262.604 306.368 261.821 305.767 261.125C304.737 259.907 303.3 259.107 301.723 258.873C300.146 258.639 298.539 258.989 297.201 259.855C296.327 260.424 295.598 261.187 295.07 262.085C294.541 262.983 294.227 263.991 294.153 265.03C292.785 264.529 291.293 264.486 289.899 264.907C288.505 265.328 287.286 266.192 286.427 267.367C285.566 268.542 285.111 269.964 285.13 271.42C285.15 272.875 285.642 274.286 286.533 275.438C288.393 277.863 291.555 279.457 294.419 280.384C295.921 280.865 297.468 281.193 299.036 281.362C299.829 281.451 304.357 282.061 304.751 281.362C307.576 276.943 309.583 268.846 307.227 263.449Z" fill="white"/>
<g opacity="0.72">
<path opacity="0.72" d="M363.416 261.372C371.315 261.372 377.717 254.97 377.717 247.072C377.717 239.175 371.315 232.772 363.416 232.772C355.519 232.772 349.116 239.175 349.116 247.072C349.116 254.97 355.519 261.372 363.416 261.372Z" fill="#3FBDF1"/>
<path opacity="0.72" d="M369.621 249.606C369.975 249.246 370.271 248.832 370.497 248.381C370.905 247.602 371.014 246.701 370.805 245.848C370.596 244.994 370.082 244.246 369.361 243.745C368.889 243.42 368.348 243.208 367.781 243.126C367.213 243.044 366.635 243.096 366.09 243.276C366.059 242.474 365.769 241.705 365.262 241.083C364.756 240.461 364.061 240.021 363.282 239.829C362.504 239.637 361.684 239.703 360.947 240.018C360.209 240.332 359.594 240.878 359.194 241.574C358.416 243.146 358.114 244.911 358.324 246.654C358.395 247.514 358.553 248.364 358.794 249.194C358.915 249.619 359.55 252.051 359.982 252.127C362.82 252.604 367.367 251.937 369.621 249.606Z" fill="white"/>
</g>
<path d="M342.924 314.602L336.127 328.976C333.662 334.188 335.889 340.411 341.101 342.877L355.475 349.674C360.687 352.139 366.911 349.912 369.375 344.7L376.173 330.326C378.638 325.114 376.411 318.89 371.199 316.426L356.824 309.628C351.612 307.163 345.389 309.39 342.924 314.602Z" fill="#3FBDF1"/>
<path d="M372.294 332.842L367.372 343.249C366.34 345.417 364.492 347.088 362.231 347.899C359.972 348.708 357.482 348.591 355.307 347.574L342.824 341.668C340.657 340.634 338.987 338.786 338.178 336.525C337.369 334.265 337.487 331.777 338.506 329.603L338.836 328.905C342.226 326.199 348.088 322.555 350.227 327.514C353.307 334.677 357.315 332.365 362.433 329.368C366.706 326.841 371.837 325.996 372.294 332.842Z" fill="white"/>
<path d="M352.958 321.78C355.079 321.78 356.8 320.06 356.8 317.938C356.8 315.816 355.079 314.096 352.958 314.096C350.836 314.096 349.116 315.816 349.116 317.938C349.116 320.06 350.836 321.78 352.958 321.78Z" fill="white"/>
<path d="M418.504 267.456C419.268 268.848 419.823 270.346 420.149 271.901C420.731 274.744 420.564 277.691 419.664 280.45C418.765 283.209 417.163 285.688 415.018 287.642C413.316 289.147 411.151 290.322 409.43 291.897C408.175 292.98 407.25 294.396 406.763 295.98C406.674 296.522 406.457 297.033 406.128 297.472C405.124 298.552 404.14 296.837 403.27 296.545C401.869 296.089 400.347 296.163 398.997 296.755C395.446 298.24 391.49 298.451 387.8 297.352C384.112 296.254 380.916 293.912 378.755 290.727C376.595 287.541 375.603 283.705 375.947 279.872C376.292 276.038 377.951 272.441 380.645 269.691C383.306 266.979 386.786 265.246 390.17 263.481C393.129 261.912 396.076 260.242 399.289 259.302C406.82 257.048 414.859 260.801 418.504 267.456Z" fill="#3FBDF1"/>
<path d="M388.177 287.071C390.176 287.071 391.796 285.45 391.796 283.451C391.796 281.452 390.176 279.832 388.177 279.832C386.178 279.832 384.557 281.452 384.557 283.451C384.557 285.45 386.178 287.071 388.177 287.071Z" fill="white"/>
<path d="M397.922 281.857C399.921 281.857 401.542 280.237 401.542 278.238C401.542 276.239 399.921 274.618 397.922 274.618C395.923 274.618 394.303 276.239 394.303 278.238C394.303 280.237 395.923 281.857 397.922 281.857Z" fill="white"/>
<path d="M407.068 276.968C409.067 276.968 410.687 275.347 410.687 273.349C410.687 271.35 409.067 269.729 407.068 269.729C405.069 269.729 403.448 271.35 403.448 273.349C403.448 275.347 405.069 276.968 407.068 276.968Z" fill="white"/>
<path d="M296.711 156.381C296.711 156.381 320.543 230.092 412.281 226.111C442.761 222.301 479.039 226.111 511.341 268.656C560.446 333.375 540.729 405.472 518.415 451.237" stroke="#CCDDE2" stroke-width="4.11" stroke-miterlimit="10"/>
<g opacity="0.54">
<path opacity="0.54" d="M429.317 185.331C429.228 186.443 429.056 187.547 428.803 188.633L425.946 201.028C425.069 204.838 424.085 208.826 421.367 211.607C416.287 216.789 407.842 215.601 400.78 214.033L383.445 210.185C379.463 209.302 375.419 208.394 371.85 206.419C368.281 204.445 365.182 201.212 364.357 197.218C363.722 194.272 364.401 191.224 365.049 188.29L367.665 176.39C368.535 172.491 369.513 168.377 372.326 165.538C377.336 160.49 385.661 161.639 392.583 163.144L410.337 167.005C421.043 169.316 430.168 174.282 429.317 185.331Z" fill="#3FBDF1"/>
<path opacity="0.54" d="M405.409 185.661C406.151 186.352 406.699 187.225 406.997 188.194C407.294 189.164 407.332 190.195 407.105 191.183C406.877 192.171 406.393 193.081 405.702 193.824C405.012 194.565 404.137 195.112 403.168 195.409L397.884 197.028L392.601 198.647C391.631 198.944 390.601 198.98 389.613 198.752C388.625 198.524 387.715 198.041 386.973 197.349C386.231 196.658 385.684 195.784 385.387 194.815C385.09 193.846 385.052 192.815 385.28 191.827L386.55 186.442L387.788 181.064C388.014 180.075 388.496 179.164 389.187 178.421C389.878 177.679 390.752 177.131 391.722 176.834C392.691 176.536 393.722 176.499 394.71 176.727C395.699 176.955 396.609 177.439 397.351 178.13L401.396 181.896L405.409 185.661Z" fill="white"/>
</g>
<path d="M54.915 603.993H603.25" stroke="black" stroke-width="4.11" stroke-miterlimit="10"/>
</svg>
