<svg width="536" height="536" viewBox="0 0 536 536" fill="none" xmlns="http://www.w3.org/2000/svg">
<path d="M304.877 94.7915C324.039 96.4371 342.976 76.5675 357.529 66.7051C388.488 45.8012 421.875 51.9652 448.064 78.0147C510.61 140.223 483.719 247.493 453.918 318.818" stroke="#CCDDE2" stroke-width="4.23" stroke-miterlimit="10"/>
<path d="M236.184 66.7055C236.027 66.6427 235.872 66.5707 235.723 66.4907" stroke="#CCDDE2" stroke-width="5.91" stroke-miterlimit="10"/>
<path d="M229.943 64.0039C224.54 61.7473 219.057 59.6569 213.381 57.8184C188.473 49.7839 170.876 58.4241 159.481 69.1441C153.695 74.7062 148.83 81.1527 145.067 88.2418C144.376 89.4907 143.845 90.5627 143.459 91.3881" stroke="#CCDDE2" stroke-width="4.23" stroke-miterlimit="10"/>
<path d="M69.192 234.345C69.192 234.345 37.5198 299.286 102.29 347.532" stroke="#CCDDE2" stroke-width="4.23" stroke-miterlimit="10"/>
<path d="M164.515 301.822L163.716 301.693C161.716 302.062 159.745 302.578 157.82 303.237C157.526 303.339 157.252 303.446 156.957 303.574C154.006 304.654 151.2 306.095 148.601 307.862C147.004 305.552 145.632 303.093 144.506 300.519C142.914 296.885 141.856 293.039 141.365 289.102C140.542 288.507 139.803 287.804 139.167 287.012C139.604 293.098 141.082 299.065 143.536 304.652C143.643 304.888 143.745 305.118 143.852 305.349C143.348 304.378 142.861 303.365 142.416 302.331C140.154 297.182 138.812 291.676 138.449 286.063C138.19 282.057 138.517 278.033 139.419 274.121C141.563 264.731 147.143 257.028 155.457 253.421L159.466 263.021C158.524 263.446 157.613 263.941 156.743 264.5C150.847 268.252 146.977 274.502 146.977 281.572C146.992 286.414 148.811 291.077 152.08 294.65C153.416 296.19 154.975 297.522 156.705 298.6C158.856 299.998 161.223 301.03 163.711 301.656C163.975 301.73 164.243 301.786 164.515 301.822Z" fill="#292E34"/>
<path d="M176.414 303.531C173.316 303.151 170.191 302.728 167.087 302.246C169.953 302.575 172.854 302.41 175.663 301.757L176.414 303.531Z" fill="#292E34"/>
<path d="M194.648 155.086C197.654 161.846 199.027 169.218 198.657 176.606C186.411 184.568 175.453 194.352 166.159 205.62C154.41 203.449 142.994 194.059 136.958 180.155C128.221 160.087 134.042 138.165 149.978 131.239C165.913 124.314 185.932 134.975 194.648 155.086Z" fill="#0CE3FF"/>
<path d="M219.292 165.93C216.459 166.972 213.69 168.184 211.001 169.558C208.723 170.7 206.021 172.137 203.046 173.884C202.896 166.931 201.375 160.077 198.571 153.714C188.885 131.454 166.732 119.614 149.066 127.295C131.399 134.976 124.946 159.24 134.594 181.527C140.693 195.576 151.746 205.454 163.538 208.912C161.64 211.34 159.759 213.912 157.947 216.592C150.578 227.521 144.642 239.35 140.286 251.792C139.396 254.293 138.559 256.853 137.772 259.472C137.772 259.472 132.182 276.817 138.426 286.037C138.636 286.374 138.876 286.692 139.144 286.985C139.581 293.072 141.058 299.038 143.513 304.625C143.62 304.861 143.722 305.091 143.829 305.322C144.59 306.78 145.389 308.194 146.257 309.524C146.997 308.934 147.774 308.382 148.578 307.836C146.981 305.525 145.609 303.066 144.483 300.493C142.891 296.858 141.833 293.013 141.342 289.076C142.025 289.55 142.752 289.959 143.513 290.297C146.452 291.552 149.306 292.997 152.057 294.623C153.835 295.635 155.404 296.976 156.682 298.573C157.177 299.163 157.75 299.68 158.387 300.111C160.67 301.591 158.923 302.706 157.797 303.237C157.502 303.339 157.229 303.446 156.934 303.575C155.224 304.33 125.283 318.047 131.147 347.527L140.581 368.881L125.492 370.591L102.284 76.5249L215.128 117.315L219.292 165.93Z" fill="#0CE3FF"/>
<path d="M146.033 309.69L140.137 315.495C138.662 313.013 137.344 310.441 136.192 307.793C127.412 287.58 129.459 266.033 139.863 252.338C139.992 252.172 140.115 251.979 140.265 251.802L140.308 251.759L139.375 274.105L139 282.987C139 282.987 139 285.286 139.081 286.385C139.081 286.594 139.081 286.787 139.124 286.996C139.56 293.083 141.038 299.049 143.492 304.636C143.599 304.872 143.701 305.102 143.808 305.332C144.51 306.823 145.255 308.275 146.033 309.69Z" fill="#0CE3FF"/>
<path d="M102.296 76.5195L52.3564 105.764L87.0304 370.585L125.44 369.712L102.296 76.5195Z" fill="#292E34"/>
<path d="M211.002 169.558C210.251 163 208.522 156.592 205.873 150.546C193.995 123.178 166.745 108.663 145.063 118.075C123.382 127.488 115.433 157.343 127.317 184.69C133.963 199.966 145.38 211.254 157.954 216.592C167.892 220.816 178.547 221.32 188.126 217.166C204.817 209.903 213.387 190.575 211.002 169.558ZM184.138 207.968C177.599 210.82 170.465 210.986 163.545 208.938C151.753 205.481 140.717 195.603 134.601 181.554C124.915 159.267 131.385 135.002 149.073 127.321C166.761 119.641 188.892 131.481 198.578 153.741C201.382 160.104 202.903 166.959 203.053 173.911C203.343 189.122 196.461 202.608 184.138 207.968Z" fill="#0CE3FF"/>
<path d="M218.832 169.912C217.947 162.194 215.91 154.653 212.791 147.539C198.817 115.342 166.775 98.2648 141.256 109.339C115.737 120.412 106.416 155.531 120.352 187.702C128.173 205.668 141.599 218.951 156.398 225.222C168.089 230.185 180.62 230.78 191.892 225.892C211.558 217.364 221.635 194.627 218.832 169.912ZM187.234 215.065C179.538 218.415 171.154 218.613 163.007 216.206C149.157 212.133 136.148 200.517 128.977 183.987C117.581 157.777 125.225 129.229 145.979 120.203C166.732 111.177 192.82 125.097 204.21 151.291C207.511 158.778 209.299 166.844 209.473 175.025C209.822 192.912 201.728 208.75 187.234 215.054V215.065Z" fill="#292E34"/>
<path d="M198.657 176.607C197.917 188.935 191.839 199.542 181.628 203.996C176.756 206.092 171.359 206.653 166.159 205.604C154.41 203.434 142.994 194.043 136.958 180.139C128.221 160.071 134.042 138.149 149.978 131.224C165.913 124.299 185.932 134.976 194.648 155.07C197.656 161.835 199.03 169.213 198.657 176.607Z" fill="#292E34"/>
<path d="M177.211 198.711C163.591 204.639 146.509 195.495 139.032 178.343C131.555 161.191 136.555 142.431 150.175 136.535C163.795 130.639 180.893 139.751 188.349 156.903C195.805 174.055 190.815 192.799 177.211 198.711Z" fill="#0CE3FF"/>
<path d="M163.716 301.693C161.715 302.062 159.745 302.578 157.82 303.237C157.525 303.339 157.252 303.446 156.957 303.575C154.006 304.655 151.199 306.095 148.601 307.863C147.003 305.552 145.632 303.093 144.506 300.519C142.913 296.885 141.855 293.039 141.365 289.103C139.676 275.703 145.036 263.294 155.649 258.695L156.721 264.5C150.825 268.252 146.955 274.502 146.955 281.572C146.97 286.414 148.789 291.077 152.058 294.65C153.394 296.19 154.953 297.522 156.683 298.6C158.834 299.998 161.201 301.03 163.689 301.656L163.716 301.693Z" fill="#0CE3FF"/>
<path d="M166.422 178.702C171.279 176.59 173.056 169.912 170.391 163.785C167.728 157.657 161.631 154.402 156.774 156.514C151.917 158.626 150.14 165.305 152.804 171.432C155.468 177.559 161.565 180.814 166.422 178.702Z" fill="#0CE3FF"/>
<path d="M341.352 155.086C338.347 161.846 336.973 169.218 337.343 176.606C349.589 184.568 360.548 194.352 369.841 205.62C381.59 203.449 393.007 194.059 399.042 180.155C407.779 160.087 401.958 138.165 386.023 131.239C370.087 124.314 350.068 134.975 341.352 155.086Z" fill="#0CE3FF"/>
<path d="M316.707 165.93C319.541 166.972 322.31 168.184 324.999 169.558C327.277 170.7 329.978 172.137 332.953 173.884C333.104 166.931 334.625 160.077 337.429 153.714C347.114 131.454 369.267 119.614 386.934 127.295C404.6 134.976 411.054 159.24 401.406 181.527C395.306 195.576 384.254 205.454 372.462 208.912C374.359 211.34 376.214 213.912 378.052 216.592C385.431 227.519 391.376 239.349 395.74 251.792C396.63 254.293 397.468 256.853 398.254 259.472C398.254 259.472 403.845 276.817 397.6 286.037C397.391 286.374 397.15 286.692 396.882 286.985C396.445 293.072 394.968 299.038 392.514 304.625C392.406 304.861 392.304 305.091 392.197 305.322C391.436 306.78 390.638 308.194 389.769 309.524C389.03 308.934 388.252 308.382 387.448 307.836C389.046 305.525 390.417 303.066 391.543 300.493C393.136 296.858 394.194 293.013 394.684 289.076C394.01 289.548 393.291 289.958 392.54 290.297C389.601 291.552 386.747 292.997 383.996 294.623C382.219 295.635 380.649 296.976 379.371 298.573C378.877 299.163 378.303 299.68 377.666 300.111C375.383 301.591 377.13 302.706 378.256 303.237C378.551 303.339 378.824 303.446 379.119 303.575C380.829 304.33 410.743 318.047 404.906 347.527L395.472 368.881L410.561 370.591L433.769 76.5249L320.925 117.315L316.707 165.93Z" fill="#0CE3FF"/>
<path d="M389.967 309.69L395.863 315.495C397.338 313.013 398.656 310.441 399.808 307.793C408.588 287.58 406.54 266.033 396.137 252.338C396.008 252.172 395.885 251.979 395.735 251.802L395.692 251.759L396.624 274.105L397 282.987C397 282.987 397 285.286 396.919 286.385C396.919 286.594 396.919 286.787 396.876 286.996C396.439 293.083 394.962 299.049 392.508 304.636C392.401 304.872 392.299 305.102 392.192 305.332C391.49 306.823 390.744 308.275 389.967 309.69Z" fill="#0CE3FF"/>
<path d="M433.704 76.5195L483.643 105.764L448.969 370.585L410.56 369.712L433.704 76.5195Z" fill="#292E34"/>
<path d="M324.998 169.558C325.749 163 327.478 156.592 330.127 150.546C342.005 123.178 369.255 108.663 390.936 118.075C412.618 127.488 420.567 157.343 408.683 184.69C402.037 199.966 390.62 211.254 378.046 216.592C368.108 220.816 357.452 221.32 347.874 217.166C331.183 209.903 322.612 190.575 324.998 169.558ZM351.862 207.968C358.401 210.82 365.535 210.986 372.455 208.938C384.247 205.481 395.283 195.603 401.399 181.554C411.085 159.267 404.615 135.002 386.927 127.321C369.239 119.641 347.108 131.481 337.422 153.741C334.618 160.104 333.097 166.959 332.947 173.911C332.657 189.122 339.539 202.608 351.862 207.968Z" fill="#0CE3FF"/>
<path d="M357.416 240.691C351.107 238.879 344.777 241.983 338.763 244.443C347.673 247.789 357.305 248.743 366.699 247.209C363.638 244.196 360.514 241.581 357.416 240.691Z" fill="#0CE3FF"/>
<path d="M317.167 169.912C318.051 162.194 320.088 154.653 323.207 147.539C337.181 115.342 369.223 98.2648 394.742 109.339C420.261 120.412 429.582 155.531 415.619 187.702C407.799 205.668 394.372 218.951 379.573 225.222C367.883 230.185 355.351 230.78 344.079 225.892C324.44 217.364 314.363 194.627 317.167 169.912ZM348.764 215.065C356.461 218.415 364.844 218.613 372.991 216.206C386.841 212.133 399.85 200.517 407.022 183.987C418.417 157.777 410.774 129.229 390.02 120.203C369.266 111.177 343.179 125.097 331.789 151.291C328.487 158.778 326.699 166.844 326.525 175.025C326.177 192.912 334.27 208.75 348.764 215.054V215.065Z" fill="#292E34"/>
<path d="M337.342 176.607C338.082 188.935 344.16 199.542 354.371 203.996C359.244 206.092 364.64 206.653 369.84 205.604C381.589 203.434 393.005 194.043 399.041 180.139C407.778 160.071 401.957 138.149 386.021 131.224C370.086 124.299 350.066 134.976 341.351 155.07C338.343 161.835 336.97 169.213 337.342 176.607Z" fill="#292E34"/>
<path d="M358.788 198.711C372.408 204.639 389.49 195.495 396.967 178.343C404.445 161.191 399.444 142.431 385.824 136.535C372.204 130.639 355.106 139.751 347.65 156.903C340.194 174.055 345.184 192.799 358.788 198.711Z" fill="#0CE3FF"/>
<path d="M372.284 301.693C374.284 302.062 376.255 302.578 378.18 303.237C378.474 303.339 378.748 303.446 379.043 303.575C381.993 304.655 384.8 306.095 387.399 307.863C388.996 305.552 390.368 303.093 391.494 300.519C393.086 296.885 394.144 293.039 394.635 289.103C396.323 275.703 390.963 263.294 380.35 258.695L379.278 264.5C386.782 267.641 391.687 273.451 389.044 281.572C387.511 286.283 387.147 291.086 383.942 294.65C382.605 296.19 381.046 297.522 379.316 298.6C377.165 299.998 374.798 301.03 372.31 301.656L372.284 301.693Z" fill="#0CE3FF"/>
<path d="M383.227 171.466C385.891 165.339 384.114 158.66 379.257 156.549C374.401 154.437 368.304 157.692 365.64 163.819C362.975 169.946 364.753 176.625 369.609 178.737C374.466 180.849 380.563 177.593 383.227 171.466Z" fill="#0CE3FF"/>
<path d="M271.431 273.36C283.48 277.868 294.264 283.437 303.167 290.512C293.905 283.78 280.757 277.048 261.81 270.042C229.907 258.207 208.933 260.7 208.933 260.7C213.403 256.669 210.364 251.309 210.364 251.309C210.364 251.309 203.257 244.405 175.299 253.373C147.341 262.34 146.516 277.621 146.516 277.621C144.656 288.952 153.034 296.612 153.034 296.612L153.098 296.885C151.687 295.645 150.452 294.219 149.426 292.645C149.153 292.243 148.89 291.82 148.665 291.396C148.074 290.357 147.588 289.262 147.213 288.127C147.064 287.748 146.937 287.362 146.832 286.969C146.832 286.84 146.768 286.717 146.746 286.588C146.626 286.179 146.528 285.764 146.452 285.345C146.452 285.195 146.387 285.029 146.366 284.857C146.289 284.439 146.234 284.016 146.2 283.592C146.078 282.57 146.042 281.539 146.093 280.51C146.093 280.51 146.093 280.087 146.135 279.438C146.135 279.395 146.135 279.358 146.135 279.315C146.221 277.707 146.516 274.818 147.336 272.883C146.661 273.853 146.007 274.845 145.353 275.836C144.951 276.469 144.361 277.546 143.664 278.709C143.602 278.789 143.547 278.873 143.498 278.961C141.681 281.368 139.746 283.372 138.138 283.078C138.03 283.052 137.924 283.017 137.822 282.97C136.852 282.568 136.257 281.513 135.882 280.14C136.005 280.14 135.775 279.781 135.753 279.604C135.622 279.034 135.531 278.456 135.48 277.873C135.48 277.514 135.415 277.133 135.394 276.758V276.313C135.369 273.134 135.594 269.959 136.069 266.815C137.651 254.707 143.455 243.542 149.11 232.908C157.393 217.47 167.838 203.295 180.129 190.811C195.598 174.988 220.473 163.083 242.61 159.246V211.774L261.568 200.598C261.568 200.598 269.228 219.894 271.42 246.217C272.166 254.829 272.202 263.487 271.527 272.106C271.527 272.213 271.527 272.32 271.484 272.401C271.495 272.717 271.452 273.054 271.431 273.36Z" fill="#0CE3FF"/>
<path d="M280.666 270.015C310.987 258.18 325.111 259.676 325.111 259.676C320.86 255.672 322.136 251.78 322.136 251.78C322.136 251.78 336.292 244.378 362.872 253.346C389.452 262.313 390.208 277.594 390.208 277.594C391.971 288.925 384.012 296.585 384.012 296.585L383.953 296.858C385.302 295.608 386.476 294.182 387.442 292.618C387.705 292.216 387.941 291.793 388.166 291.369C388.728 290.325 389.191 289.23 389.549 288.1C389.688 287.72 389.808 287.334 389.908 286.942C389.908 286.813 389.967 286.69 389.988 286.562C390.106 286.16 390.186 285.736 390.267 285.318C390.267 285.168 390.331 285.002 390.347 284.83C390.425 284.412 390.478 283.989 390.508 283.565C390.623 282.542 390.657 281.511 390.61 280.483C390.61 280.483 390.61 280.06 390.567 279.411C390.567 279.368 390.567 279.331 390.567 279.288C390.487 277.68 390.202 274.791 389.42 272.856C390.063 273.826 390.685 274.818 391.307 275.809C391.687 276.442 392.25 277.519 392.915 278.682C392.979 278.759 393.033 278.844 393.075 278.934C394.801 281.341 396.645 283.346 398.151 283.051C398.255 283.024 398.355 282.989 398.451 282.944C399.373 282.542 399.936 281.486 400.295 280.113C400.177 280.113 400.397 279.754 400.419 279.577C400.542 279.007 400.628 278.428 400.676 277.846C400.676 277.487 400.735 277.106 400.756 276.731V276.286C400.782 273.109 400.569 269.934 400.118 266.788C398.612 254.68 393.097 243.515 387.726 232.881C379.919 217.538 369.995 203.367 358.246 190.784C343.576 174.897 319.911 162.992 298.873 159.154V211.682L282.665 201.595C278.252 216.876 275.397 232.564 274.142 248.42C273.499 256.497 270.723 263.063 271.425 272.116C271.425 272.224 271.425 272.331 271.462 272.411C271.462 272.727 271.505 273.065 271.521 273.381L280.666 270.015Z" fill="#0CE3FF"/>
<path d="M334.883 366.367C334.926 364.55 334.969 362.615 334.99 360.519L335.054 362.481C335.121 363.779 335.063 365.08 334.883 366.367Z" fill="#0CE3FF"/>
<path d="M227.681 501.937L167.542 509.2C166.469 509.202 165.405 508.991 164.413 508.582C163.421 508.172 162.519 507.572 161.759 506.814C160.999 506.056 160.396 505.155 159.983 504.164C159.571 503.173 159.358 502.11 159.357 501.037C159.36 498.869 160.224 496.79 161.759 495.258C163.293 493.727 165.373 492.867 167.542 492.868L189.572 486.688C190.578 486.407 191.51 485.906 192.3 485.221C193.09 484.537 193.718 483.686 194.14 482.73C194.562 481.773 194.767 480.735 194.739 479.691C194.712 478.645 194.454 477.619 193.983 476.686L167.103 423.258C202.146 436.32 216.098 418.048 216.098 418.048L234.982 491.239C235.284 492.426 235.331 493.664 235.119 494.871C234.906 496.078 234.439 497.225 233.748 498.237C233.057 499.25 232.159 500.103 231.113 500.741C230.067 501.379 228.897 501.787 227.681 501.937Z" fill="#2E2E2E"/>
<path d="M377.344 501.01C377.349 502.084 377.141 503.148 376.733 504.142C376.324 505.135 375.725 506.038 374.966 506.799C374.208 507.56 373.308 508.164 372.316 508.576C371.324 508.988 370.261 509.2 369.186 509.2L309.299 503.776C308.066 503.658 306.872 503.276 305.8 502.655C304.728 502.034 303.803 501.188 303.088 500.176C302.372 499.165 301.885 498.011 301.657 496.793C301.429 495.574 301.467 494.322 301.768 493.12L320.92 418.08C327.464 423.188 342.07 433.678 369.229 425.15L342.912 478.326C342.433 479.297 342.181 480.364 342.177 481.446C342.174 482.528 342.418 483.596 342.891 484.57C343.364 485.544 344.052 486.396 344.905 487.062C345.758 487.728 346.752 488.191 347.811 488.414L369.208 492.863C371.366 492.869 373.434 493.729 374.959 495.256C376.484 496.783 377.342 498.852 377.344 501.01Z" fill="#2E2E2E"/>
<path d="M261.933 200.598L243.007 211.672V159.144C243.194 159.101 243.409 159.08 243.596 159.037L261.933 200.598Z" fill="#2E2E2E"/>
<path d="M299.624 160.06V211.672L294.752 208.761L282.777 201.589L299.029 159.937C299.043 159.88 299.074 159.829 299.118 159.79C299.162 159.752 299.217 159.728 299.275 159.721C299.333 159.714 299.392 159.725 299.444 159.752C299.495 159.779 299.538 159.821 299.565 159.872L299.624 160.06Z" fill="#2E2E2E"/>
<path d="M227.8 363.58L226.938 363.96" stroke="black" stroke-width="5.91" stroke-miterlimit="10"/>
<path d="M216.78 383.24C215.537 383.915 213.409 386.456 213.409 386.456C211.104 389.672 210.113 394.265 211.801 401.437L234.972 491.244C235.281 492.433 235.331 493.674 235.121 494.884C234.911 496.094 234.445 497.245 233.753 498.26C233.063 499.275 232.162 500.131 231.113 500.769C230.064 501.408 228.891 501.815 227.672 501.964L167.533 509.2C165.365 509.202 163.284 508.342 161.749 506.81C160.215 505.279 159.351 503.2 159.348 501.031C159.351 498.863 160.215 496.785 161.749 495.253C163.284 493.721 165.365 492.862 167.533 492.863L189.562 486.688C190.569 486.407 191.501 485.906 192.291 485.221C193.081 484.537 193.709 483.686 194.131 482.73C194.553 481.773 194.757 480.735 194.73 479.69C194.703 478.645 194.445 477.619 193.974 476.686L134.574 358.643C130.657 350.345 129.68 340.96 131.805 332.033C133.929 323.106 139.029 315.168 146.264 309.524C147.004 308.929 147.781 308.382 148.585 307.835C153.151 304.767 158.303 302.675 163.717 301.693" stroke="black" stroke-width="5.91" stroke-miterlimit="10"/>
<path d="M373.093 301.73C398.757 306.501 413.502 334.502 402.107 358.643L342.884 478.31C342.404 479.279 342.153 480.346 342.15 481.427C342.146 482.508 342.39 483.575 342.862 484.548C343.336 485.52 344.025 486.371 344.878 487.036C345.731 487.7 346.724 488.16 347.783 488.382L369.169 492.841C370.243 492.839 371.306 493.049 372.298 493.459C373.291 493.868 374.193 494.47 374.952 495.229C375.711 495.988 376.314 496.889 376.724 497.881C377.134 498.873 377.344 499.936 377.343 501.01C377.348 502.085 377.139 503.151 376.73 504.145C376.321 505.14 375.719 506.043 374.96 506.805C374.2 507.566 373.297 508.169 372.303 508.58C371.31 508.991 370.245 509.202 369.169 509.2L309.271 503.776C308.037 503.66 306.842 503.278 305.769 502.658C304.695 502.037 303.769 501.192 303.053 500.18C302.337 499.168 301.847 498.013 301.619 496.795C301.391 495.576 301.429 494.322 301.73 493.12L324.88 401.437C325.473 398.944 325.553 396.356 325.114 393.831C324.676 391.307 323.728 388.897 322.328 386.751C316.77 377.96 289.069 372.633 289.069 372.633C283.667 371.77 277.508 371.062 270.497 370.606C269.069 370.515 267.637 370.515 266.209 370.606C259.177 371.062 253.023 371.77 247.615 372.633" stroke="black" stroke-width="5.91" stroke-miterlimit="10"/>
<path d="M310.13 361.998C309.594 361.762 309.058 361.553 308.484 361.323" stroke="black" stroke-width="5.91" stroke-miterlimit="10"/>
<path d="M299.158 358.284C298.273 358.032 297.346 357.796 296.371 357.587" stroke="black" stroke-width="5.91" stroke-miterlimit="10"/>
<path d="M239.93 359.801C239.356 359.929 238.788 360.058 238.241 360.224" stroke="black" stroke-width="5.91" stroke-miterlimit="10"/>
<path d="M321.8 253.346C322.393 255.421 322.837 257.537 323.129 259.676C304.712 262.356 287.217 266.917 271.673 273.371" stroke="black" stroke-width="5.91" stroke-miterlimit="10"/>
<path d="M221.421 309.706C217.037 311.341 213.955 315.012 211.124 318.566C207.779 322.853 204.2 326.952 200.404 330.846C197.242 334.062 193.351 336.742 191.207 340.789C191.189 340.84 191.168 340.89 191.142 340.939C188.017 347.183 196.545 352.795 201.326 347.692L204.151 344.696" stroke="black" stroke-width="5.91" stroke-miterlimit="10"/>
<path d="M210.273 328.321C202.495 341.116 202.072 358.048 201.643 373.056C201.579 375.157 201.611 377.344 202.485 379.247C204.452 383.567 211.489 383.567 211.977 378.175C212.969 366.635 215.82 353.519 216.094 352.104" stroke="black" stroke-width="5.91" stroke-miterlimit="10"/>
<path d="M322.136 311.952C322.265 311.952 322.41 311.888 322.538 311.866C339.358 307.943 356.365 304.652 373.072 301.715C373.265 301.677 373.431 301.656 373.608 301.613C376.377 301.128 379.017 300.078 381.362 298.527C383.707 296.977 385.708 294.96 387.239 292.603" stroke="black" stroke-width="5.91" stroke-miterlimit="10"/>
<path d="M279.256 323.444C271.752 325.781 265.374 328.343 258.722 332.802C249.84 338.768 249.411 348.807 249.733 357.839C249.862 361.532 250.012 365.204 250.012 368.875C250.012 369.427 249.903 369.973 249.692 370.483C249.481 370.992 249.171 371.455 248.781 371.845C248.39 372.235 247.927 372.544 247.418 372.754C246.908 372.965 246.362 373.073 245.81 373.072H244.818C243.742 373.075 242.707 372.661 241.929 371.918C241.151 371.175 240.69 370.159 240.642 369.084L239.946 359.801L239.099 348.641C239.099 348.641 238.681 353.706 238.257 360.224C237.898 365.879 237.56 372.633 237.539 378.094C237.537 379.165 237.127 380.193 236.391 380.971C235.655 381.747 234.649 382.213 233.581 382.273C232.513 382.333 231.462 381.981 230.644 381.291C229.827 380.601 229.304 379.624 229.183 378.561C228.781 375.227 228.191 369.867 227.811 363.58C227.58 360.015 227.409 356.151 227.387 352.184" stroke="black" stroke-width="5.91" stroke-miterlimit="10"/>
<path d="M227.371 352.077V352.184C226.867 362.754 226.508 375.436 227.033 385.293C227.178 388.016 224.546 389.919 221.989 389.865C218.42 389.79 217.23 387.008 216.86 383.942C215.563 373.099 214.18 362.974 216.083 352.109C216.087 352.1 216.088 352.089 216.088 352.08C216.088 352.07 216.087 352.059 216.083 352.05" stroke="black" stroke-width="5.91" stroke-miterlimit="10"/>
<path d="M323.129 259.676C329.046 258.923 335.03 260.431 339.884 263.9" stroke="black" stroke-width="5.91" stroke-miterlimit="10"/>
<path d="M213.806 259.676C234.779 262.758 254.542 266.96 271.694 273.371C287.581 279.304 301.211 287.108 311.422 297.662C318.09 304.496 323.214 312.724 328.327 320.764C328.81 321.503 329.276 322.243 329.759 322.983C331.424 325.743 333.454 328.267 335.794 330.487C338.372 332.786 341.47 334.646 343.244 337.707C345.018 340.767 344.638 344.541 341.492 346.524C339.996 347.473 336.469 348.062 334.593 346.819" stroke="black" stroke-width="5.91" stroke-miterlimit="10"/>
<path d="M309.561 341.529V341.636C310.06 351.954 310.413 364.287 309.936 374.037C309.907 374.699 310.011 375.36 310.245 375.98C310.478 376.6 310.835 377.166 311.293 377.644C311.752 378.122 312.303 378.502 312.913 378.761C313.522 379.02 314.178 379.152 314.841 379.15C316.051 379.151 317.218 378.704 318.118 377.896C319.019 377.087 319.589 375.975 319.718 374.771C320.57 366.796 321.98 354.2 319.182 338.404C319.178 338.395 319.176 338.384 319.176 338.374C319.176 338.364 319.178 338.354 319.182 338.345C319.461 339.754 323.963 356.086 324.955 367.632C325.448 372.992 332.459 372.992 334.453 368.704C335.327 366.79 335.353 364.614 335.294 362.513C334.866 347.532 334.442 330.589 326.665 317.8" stroke="black" stroke-width="5.91" stroke-miterlimit="10"/>
<path d="M213.806 259.676C207.889 258.924 201.908 260.432 197.056 263.9" stroke="black" stroke-width="5.91" stroke-miterlimit="10"/>
<path d="M242.884 159.192V211.72L261.81 200.646L243.473 159.09C243.448 159.025 243.4 158.971 243.339 158.936C243.277 158.902 243.206 158.889 243.137 158.902C243.068 158.913 243.005 158.949 242.958 159.002C242.912 159.055 242.886 159.122 242.884 159.192Z" stroke="black" stroke-width="5.91" stroke-miterlimit="10"/>
<path d="M261.809 200.598C261.809 200.598 275.209 234.318 271.666 273.371C271.666 273.371 275.525 223.014 282.664 201.584L299.505 211.672V160.055C299.509 159.981 299.486 159.908 299.441 159.85C299.395 159.792 299.33 159.752 299.257 159.739C299.184 159.725 299.109 159.738 299.046 159.775C298.982 159.813 298.934 159.872 298.91 159.943L282.664 201.584" stroke="black" stroke-width="5.91" stroke-miterlimit="10"/>
<path d="M299.507 160.055L289.763 125.451" stroke="black" stroke-width="5.91" stroke-miterlimit="10"/>
<path d="M243.472 159.042L248.901 129.873" stroke="black" stroke-width="5.91" stroke-miterlimit="10"/>
<path d="M176.413 303.531C176.423 303.527 176.434 303.524 176.445 303.524C176.457 303.524 176.467 303.527 176.477 303.531C182.077 306.074 186.925 310.02 190.553 314.986C192.032 316.974 193.264 319.133 194.224 321.418C195.92 325.373 196.879 329.606 197.054 333.907" stroke="black" stroke-width="5.91" stroke-miterlimit="10"/>
<path d="M335.767 330.492C335.767 330.492 342.654 307.214 373.094 301.73" stroke="black" stroke-width="5.91" stroke-miterlimit="10"/>
<path d="M323.975 389.865C323.975 389.865 324.982 381.739 326.762 370.955" stroke="black" stroke-width="5.91" stroke-miterlimit="10"/>
<path d="M313.871 88.3972C313.871 102.773 306.035 115.615 295.234 123.95C293.156 125.56 290.957 127.008 288.657 128.281C290.417 124.37 291.305 120.124 291.262 115.835V113.005C291.736 112.658 292.181 112.273 292.592 111.853C293.168 111.293 293.682 110.673 294.125 110.003C294.581 109.33 294.969 108.611 295.282 107.859C295.938 106.321 296.274 104.665 296.269 102.992C296.27 102.6 296.247 102.208 296.199 101.819C296.209 101.755 296.209 101.69 296.199 101.626C296.168 101.254 296.112 100.885 296.027 100.522C296.035 100.478 296.035 100.432 296.027 100.388C295.955 100.013 295.857 99.6441 295.733 99.2833C295.622 98.8883 295.485 98.5013 295.32 98.1256C295.269 98.0012 295.212 97.8796 295.148 97.7611C295.054 97.5312 294.944 97.3077 294.821 97.0911C294.8 97.0348 294.769 96.9823 294.73 96.9357C294.564 96.6114 294.374 96.2994 294.162 96.003C293.975 95.7082 293.75 95.4134 293.54 95.1401C293.23 94.7756 292.919 94.4326 292.592 94.1056C292.265 93.7786 292.056 93.6178 291.798 93.3766C291.659 93.2587 291.504 93.1354 291.348 93.0175C291.193 92.8996 290.919 92.7066 290.694 92.5673C290.391 92.3572 290.074 92.1674 289.746 91.9991C288.955 91.5607 288.115 91.2187 287.242 90.9807V85.4813C287.251 85.3602 287.251 85.2385 287.242 85.1169C287.152 83.7195 286.533 82.4095 285.51 81.4533C284.487 80.4971 283.138 79.967 281.738 79.9713H254.241C252.78 79.9729 251.38 80.5539 250.348 81.5873C249.316 82.6202 248.736 84.0213 248.736 85.4813V91.3291C246.675 92.1208 244.86 93.4431 243.475 95.1631C242.091 96.8826 241.186 98.9382 240.853 101.12C240.52 103.303 240.77 105.535 241.578 107.589C242.387 109.644 243.725 111.447 245.456 112.817V115.873C245.444 120.154 246.358 124.386 248.136 128.281C243.412 125.681 239.125 122.354 235.433 118.424C230.223 111.231 226.958 102.617 226.958 93.3498C226.955 84.2555 229.676 75.3686 234.771 67.8357C239.866 60.3027 247.101 54.4684 255.542 51.0859C263.984 47.7034 273.246 46.9276 282.133 48.8585C291.02 50.7893 299.125 55.3383 305.402 61.9188C310.932 69.6383 313.895 78.9014 313.871 88.3972Z" fill="#2E2E2E"/>
<path d="M245.45 112.807V115.873C245.38 122.451 247.579 128.853 251.678 134C255.178 138.288 260.42 142.099 268.058 142.362C277.026 142.678 282.852 137.463 286.427 132.204C289.656 127.359 291.338 121.647 291.251 115.824L291.165 102.574V93.9341" stroke="black" stroke-width="5.91" stroke-miterlimit="10"/>
<path d="M265.754 102.998C265.754 104.644 265.43 106.272 264.8 107.793C264.17 109.313 263.247 110.694 262.083 111.858C260.919 113.021 259.538 113.943 258.018 114.572C256.497 115.202 254.867 115.525 253.222 115.524C252.447 115.531 251.672 115.457 250.912 115.305C248.461 113.979 246.522 111.874 245.403 109.322C244.284 106.77 244.048 103.917 244.734 101.216C245.419 98.5149 246.987 96.12 249.187 94.4107C251.388 92.7014 254.097 91.7752 256.883 91.7795C257.659 91.7747 258.433 91.8503 259.194 92.0046C261.177 93.0745 262.835 94.661 263.99 96.5965C265.144 98.532 265.754 100.744 265.754 102.998Z" fill="#0CE3FF"/>
<path d="M296.247 102.998C296.247 104.644 295.923 106.272 295.293 107.793C294.663 109.313 293.74 110.694 292.577 111.858C291.413 113.021 290.031 113.943 288.511 114.572C286.99 115.202 285.361 115.525 283.715 115.524C282.94 115.531 282.166 115.457 281.405 115.305C278.954 113.979 277.015 111.874 275.896 109.322C274.777 106.77 274.541 103.917 275.227 101.216C275.912 98.5149 277.48 96.12 279.68 94.4107C281.881 92.7014 284.59 91.7752 287.376 91.7795C288.152 91.7747 288.926 91.8503 289.686 92.0046C291.67 93.0745 293.328 94.661 294.483 96.5965C295.638 98.532 296.248 100.744 296.247 102.998Z" fill="#0CE3FF"/>
<path d="M253.227 115.524C260.142 115.524 265.748 109.918 265.748 103.003C265.748 96.0874 260.142 90.4819 253.227 90.4819C246.312 90.4819 240.706 96.0874 240.706 103.003C240.706 109.918 246.312 115.524 253.227 115.524Z" stroke="black" stroke-width="5.91" stroke-miterlimit="10"/>
<path d="M283.726 115.524C290.642 115.524 296.247 109.918 296.247 103.003C296.247 96.0874 290.642 90.4819 283.726 90.4819C276.811 90.4819 271.205 96.0874 271.205 103.003C271.205 109.918 276.811 115.524 283.726 115.524Z" stroke="black" stroke-width="5.91" stroke-miterlimit="10"/>
<path d="M265.75 126.426C265.75 126.426 272.937 131.03 277.134 124.7" stroke="black" stroke-width="5.91" stroke-miterlimit="10"/>
<path d="M288.642 128.281C302.691 120.531 313.872 105.571 313.872 88.3973C313.937 82.378 312.808 76.4054 310.55 70.8256C308.291 65.2453 304.949 60.1689 300.715 55.8889C296.482 51.6096 291.442 48.2122 285.887 45.8934C280.331 43.5747 274.371 42.3809 268.352 42.3809C262.332 42.3809 256.372 43.5747 250.817 45.8934C245.262 48.2122 240.222 51.6096 235.988 55.8889C231.755 60.1689 228.413 65.2453 226.154 70.8256C223.896 76.4054 222.767 82.378 222.832 88.3973C222.832 105.587 234.045 120.557 248.11 128.281" stroke="black" stroke-width="5.91" stroke-miterlimit="10"/>
<path d="M248.731 90.5358V85.4866C248.731 84.025 249.312 82.6228 250.345 81.5888C251.378 80.5544 252.779 79.9728 254.242 79.9712H281.663C283.126 79.9712 284.529 80.5522 285.563 81.5867C286.598 82.6212 287.179 84.0239 287.179 85.4866V90.4821" stroke="black" stroke-width="5.91" stroke-miterlimit="10"/>
<path d="M146.328 280.489C146.105 285.471 147.705 290.365 150.826 294.255C153.948 298.146 158.379 300.766 163.292 301.629L163.715 301.693C167.934 302.433 172.173 303.001 176.413 303.531C176.423 303.527 176.434 303.524 176.445 303.524C176.457 303.524 176.467 303.527 176.478 303.531C182.872 304.309 189.267 304.984 195.64 305.852L196.084 305.911C198.298 306.233 200.533 306.549 202.752 306.887C208.975 307.771 215.198 308.72 221.427 309.69C231.702 311.271 241.977 312.879 252.252 314.439C259.702 315.559 267.742 315.811 274.389 319.735C276.149 320.764 277.778 322.005 279.239 323.428C284.492 328.407 287.43 335.456 287.912 342.627C288.207 347.06 287.07 351.3 286.963 355.711C286.963 356.579 286.963 357.421 286.963 358.284C286.961 358.837 287.067 359.385 287.276 359.897C287.486 360.409 287.795 360.875 288.185 361.267C288.574 361.66 289.038 361.971 289.549 362.184C290.059 362.397 290.607 362.507 291.16 362.507H292.071C293.158 362.51 294.206 362.1 295.002 361.359C295.798 360.619 296.283 359.604 296.359 358.52L296.424 357.571L297.898 338.071C297.898 338.071 298.766 348.223 299.205 358.268C299.334 361.484 299.441 364.7 299.463 367.53C299.465 368.121 299.594 368.705 299.84 369.242C300.085 369.78 300.443 370.259 300.887 370.648C301.333 371.037 301.855 371.326 302.421 371.498C302.987 371.669 303.583 371.718 304.169 371.641C305.125 371.494 306.005 371.033 306.67 370.33C307.335 369.627 307.747 368.723 307.84 367.76C308.049 366.05 308.28 363.858 308.532 361.328C309.068 355.968 309.545 348.963 309.604 341.641" stroke="black" stroke-width="5.91" stroke-miterlimit="10"/>
<path d="M400.779 280.082C399.787 284.262 396.732 290.593 387.277 292.619C389.638 289.025 390.805 284.779 390.611 280.484C390.504 278.184 390.455 277.059 390.203 274.464C392.524 278.093 396.287 283.989 398.838 282.912C399.809 282.51 400.393 281.454 400.779 280.082Z" fill="black"/>
<path d="M307.874 228.722C310.458 231.314 312.752 234.181 314.713 237.271C315.947 239.212 316.598 241.467 316.589 243.768V253.346C318.197 252.81 319.773 252.354 321.413 251.958C332.755 249.163 344.597 249.075 355.98 251.7C363.984 253.617 371.538 257.075 378.218 261.884C380.25 263.346 382.195 264.925 384.044 266.612C385.897 268.219 387.616 269.974 389.185 271.859C391.758 275.14 393.258 279.465 396.528 282.194C397.15 282.73 398.023 283.266 398.854 282.922C399.824 282.52 400.419 281.465 400.794 280.092C399.803 284.273 396.748 290.603 387.293 292.629" stroke="black" stroke-width="5.91" stroke-miterlimit="10"/>
<path d="M299.115 158.709C321.397 162.461 340.923 174.747 356.532 190.719C368.815 203.204 379.253 217.38 387.528 232.817C393.183 243.451 398.988 254.616 400.569 266.724C401.044 269.867 401.27 273.043 401.245 276.222V276.667C401.245 277.042 401.18 277.423 401.159 277.782C401.106 278.364 401.015 278.942 400.886 279.513C400.862 279.696 400.819 279.875 400.757 280.049" stroke="black" stroke-width="5.91" stroke-miterlimit="10"/>
<path d="M400.777 280.081C400.84 279.908 400.883 279.728 400.906 279.545C401.037 278.976 401.128 278.397 401.179 277.814C401.244 277.353 401.244 276.973 401.265 276.699V276.254" stroke="black" stroke-width="5.91" stroke-miterlimit="10"/>
<path d="M136.144 280.082C137.136 284.262 140.196 290.593 149.651 292.619C147.291 289.025 146.128 284.778 146.328 280.484C146.43 278.184 146.478 277.059 146.73 274.464C144.409 278.093 140.652 283.989 138.095 282.912C137.12 282.51 136.53 281.454 136.144 280.082Z" fill="black"/>
<path d="M229.06 228.722C226.475 231.314 224.182 234.181 222.22 237.271C220.986 239.212 220.335 241.467 220.344 243.768V253.346C218.736 252.81 217.155 252.354 215.52 251.958C204.179 249.164 192.34 249.076 180.959 251.7C172.952 253.616 165.397 257.075 158.715 261.884C156.685 263.347 154.741 264.925 152.894 266.612C149.973 269.292 147.738 272.508 145.599 275.794C144.313 277.782 141.284 284.273 138.095 282.922C137.125 282.52 136.535 281.465 136.155 280.092C137.146 284.273 140.207 290.603 149.662 292.629" stroke="black" stroke-width="5.91" stroke-miterlimit="10"/>
<path d="M243.473 159.042C221.186 162.794 196.015 174.747 180.396 190.72C168.107 203.205 157.662 217.38 149.378 232.817C143.723 243.451 137.923 254.616 136.342 266.724C135.865 269.867 135.639 273.043 135.667 276.222V276.667C135.667 277.042 135.726 277.423 135.747 277.782C135.802 278.365 135.895 278.943 136.026 279.513C136.045 279.696 136.086 279.876 136.149 280.049" stroke="black" stroke-width="5.91" stroke-miterlimit="10"/>
<path d="M136.145 280.081C136.279 280.081 136.038 279.722 136.022 279.545C135.889 278.976 135.796 278.397 135.743 277.814C135.684 277.353 135.684 276.973 135.663 276.699V276.254" stroke="black" stroke-width="5.91" stroke-miterlimit="10"/>
<path d="M389.169 271.849C389.169 271.849 393.806 283.298 386.73 293.412" stroke="black" stroke-width="5.91" stroke-miterlimit="10"/>
<path d="M248.903 209.211L251.583 228.443C252.272 233.375 254.721 237.891 258.478 241.159C262.235 244.428 267.046 246.228 272.026 246.228C277.11 246.226 282.014 244.349 285.799 240.955C289.584 237.562 291.984 232.891 292.539 227.837L294.629 208.756" stroke="black" stroke-width="5.91" stroke-miterlimit="10"/>
<path d="M146.328 280.484C146.328 280.484 146.398 275.703 147.609 272.819" stroke="black" stroke-width="5.91" stroke-miterlimit="10"/>
<path d="M212.426 251.277L210.374 259.483" stroke="black" stroke-width="5.91" stroke-miterlimit="10"/>
<path d="M216.094 418.08C216.094 418.08 202.158 436.352 167.087 423.285" stroke="black" stroke-width="5.91" stroke-miterlimit="10"/>
<path d="M320.898 418.08C320.898 418.08 334.834 436.352 369.905 423.285" stroke="black" stroke-width="5.91" stroke-miterlimit="10"/>
<path d="M335.07 350.941C335.07 354.4 335.044 357.592 334.99 360.519C334.861 356.049 334.695 351.407 334.336 346.824C333.596 337.712 332.015 328.638 328.086 320.807C328.086 320.807 328.086 320.807 328.086 320.764C326.21 317.789 324.334 314.814 322.373 311.882C319.101 306.806 315.363 302.045 311.208 297.662C308.799 295.177 306.234 292.85 303.527 290.694C309.691 295.234 314.081 299.806 317.307 304.432C325.353 316.079 335.135 326.676 335.07 350.941Z" fill="black"/>
<path d="M456.994 370.585H396.201" stroke="black" stroke-width="5.91" stroke-miterlimit="10"/>
<path d="M140.588 370.585H87.0308" stroke="black" stroke-width="5.91" stroke-miterlimit="10"/>
<g opacity="0.61">
<path opacity="0.61" d="M349.681 86.135L348.636 87.3678L347.103 86.0707L348.148 84.8379C348.324 84.6315 348.457 84.3924 348.541 84.1341C348.624 83.8763 348.655 83.604 348.633 83.3339C348.612 83.0637 348.537 82.8 348.413 82.5588C348.289 82.3176 348.119 82.1032 347.912 81.9274L337.412 73.0083L342.065 57.9307L353.76 67.8681C354.594 68.5762 355.113 69.5865 355.202 70.6773C355.292 71.7675 354.945 72.8492 354.237 73.6837L353.01 75.1309L351.477 73.8338L352.704 72.3866C353.062 71.9562 353.236 71.4025 353.191 70.8445C353.146 70.2871 352.885 69.7688 352.463 69.4011L343.078 61.4307L339.722 72.3598L349.209 80.3998C350.03 81.0993 350.541 82.0952 350.629 83.1698C350.717 84.2451 350.377 85.3106 349.681 86.135Z" fill="#0CE3FF"/>
<path opacity="0.61" d="M347.184 89.6995C348.386 89.6995 349.361 88.7256 349.361 87.5233C349.361 86.3216 348.386 85.3472 347.184 85.3472C345.983 85.3472 345.008 86.3216 345.008 87.5233C345.008 88.7256 345.983 89.6995 347.184 89.6995Z" fill="#0CE3FF"/>
<path opacity="0.61" d="M352.459 76.7605C353.661 76.7605 354.635 75.7861 354.635 74.5844C354.635 73.3827 353.661 72.4082 352.459 72.4082C351.257 72.4082 350.283 73.3827 350.283 74.5844C350.283 75.7861 351.257 76.7605 352.459 76.7605Z" fill="#0CE3FF"/>
</g>
<g opacity="0.61">
<path opacity="0.61" d="M455.697 77.1518L454.089 76.6158L454.754 74.638L456.362 75.174C456.628 75.264 456.91 75.301 457.191 75.2817C457.472 75.2629 457.747 75.189 457.999 75.0641C458.251 74.9392 458.477 74.7661 458.661 74.5538C458.847 74.3416 458.989 74.0955 459.079 73.8286L463.64 60.2732L479.978 58.96L474.896 74.0698C474.53 75.1439 473.753 76.0294 472.735 76.5322C471.717 77.0344 470.542 77.1127 469.467 76.7498L467.596 76.1227L468.261 74.1448L470.131 74.7773C470.685 74.9622 471.29 74.9204 471.812 74.6599C472.335 74.3994 472.733 73.9428 472.919 73.3891L476.998 61.2755L465.206 62.2242L461.057 74.504C460.694 75.5636 459.927 76.4373 458.923 76.9337C457.919 77.4295 456.759 77.5082 455.697 77.1518Z" fill="#0CE3FF"/>
<path opacity="0.61" d="M453.392 77.5375C454.641 77.5375 455.654 76.5245 455.654 75.2756C455.654 74.0262 454.641 73.0137 453.392 73.0137C452.143 73.0137 451.13 74.0262 451.13 75.2756C451.13 76.5245 452.143 77.5375 453.392 77.5375Z" fill="#0CE3FF"/>
<path opacity="0.61" d="M467.906 77.6557C469.155 77.6557 470.168 76.6432 470.168 75.3938C470.168 74.1449 469.155 73.1318 467.906 73.1318C466.657 73.1318 465.644 74.1449 465.644 75.3938C465.644 76.6432 466.657 77.6557 467.906 77.6557Z" fill="#0CE3FF"/>
</g>
<g opacity="0.61">
<path opacity="0.61" d="M375.511 64.674L372.773 62.6693L375.989 58.2795C374.577 57.3726 373.369 56.1826 372.44 54.7848C371.659 53.6109 371.184 52.2604 371.058 50.8561C370.933 49.4517 371.161 48.0383 371.722 46.7448C372.638 44.4828 374.402 42.4246 377.044 40.4575C382.265 36.5983 388.472 34.6847 394.062 33.5699L396.742 29.9465C397.509 28.9013 398.79 27.1486 400.891 26.827C401.599 26.7506 402.314 26.8484 402.976 27.112C403.636 27.3756 404.223 27.797 404.684 28.3393C405.145 28.8816 405.466 29.5284 405.62 30.2234C405.773 30.9183 405.755 31.6403 405.565 32.3263C404.547 35.3762 400.929 35.9122 399.369 36.132C398.297 36.2874 397.171 36.4643 396.008 36.668L388.681 46.6858C391.897 48.2938 393.275 52.1637 391.935 55.7978C390.702 59.121 387.534 60.9863 383.455 60.7933C381.947 60.7076 380.46 60.3897 379.049 59.85L375.511 64.674ZM390.991 37.7828C386.875 38.8548 382.667 40.5379 379.054 43.2072C376.91 44.8152 375.538 46.3696 374.863 48.0312C374.515 48.8193 374.372 49.6827 374.447 50.5411C374.522 51.3994 374.813 52.2249 375.292 52.9409C375.995 53.9818 376.908 54.8657 377.972 55.5352L382.115 49.8696C381.82 49.9661 381.515 50.0787 381.209 50.202L379.944 47.0503C381.552 46.3809 383.264 45.9999 385.004 45.9247L390.991 37.7828ZM386.612 49.5105L381.15 56.977C381.955 57.2118 382.784 57.3538 383.621 57.4004C384.832 57.4594 387.754 57.304 388.745 54.6186C389.372 52.9248 389.045 50.6468 387.164 49.7249C386.987 49.6374 386.802 49.5657 386.612 49.5105ZM401.851 30.3592C401.718 30.2466 401.547 30.1907 401.373 30.2038C400.725 30.3003 400.039 31.1632 399.455 31.9672L398.865 32.7766C400.189 32.5836 401.979 32.2406 402.279 31.3026C402.3 31.169 402.289 31.0323 402.248 30.9038C402.205 30.7753 402.134 30.6584 402.038 30.5629C401.983 30.488 401.921 30.4197 401.851 30.3592Z" fill="#0CE3FF"/>
</g>
<g opacity="0.61">
<path opacity="0.61" d="M105.056 63.9286L105.592 65.4563L103.695 66.1102L103.159 64.5826C102.979 64.0659 102.601 63.6414 102.109 63.4023C101.617 63.1632 101.05 63.1289 100.532 63.3069L87.5181 67.7986L76.9053 56.1191L91.4201 51.1073C92.4552 50.7519 93.5888 50.8215 94.5729 51.3008C95.5565 51.7801 96.3101 52.63 96.6676 53.6643L97.284 55.4545L95.408 56.1138L94.7916 54.3182C94.6035 53.794 94.2181 53.3637 93.718 53.1185C93.2174 52.8734 92.6417 52.8326 92.1116 53.0048L80.475 57.025L88.1452 65.467L99.9372 61.4094C100.951 61.0766 102.054 61.1543 103.011 61.6249C103.967 62.0961 104.702 62.9226 105.056 63.9286Z" fill="#0CE3FF"/>
<path opacity="0.61" d="M104.975 68.9617C106.177 68.9617 107.151 67.9872 107.151 66.7855C107.151 65.5838 106.177 64.6094 104.975 64.6094C103.773 64.6094 102.799 65.5838 102.799 66.7855C102.799 67.9872 103.773 68.9617 104.975 68.9617Z" fill="#0CE3FF"/>
<path opacity="0.61" d="M96.5331 57.8336C97.7348 57.8336 98.7093 56.8597 98.7093 55.6574C98.7093 54.4557 97.7348 53.4814 96.5331 53.4814C95.3314 53.4814 94.3569 54.4557 94.3569 55.6574C94.3569 56.8597 95.3314 57.8336 96.5331 57.8336Z" fill="#0CE3FF"/>
</g>
<g opacity="0.61">
<path opacity="0.61" d="M195.865 90.5034L193.42 92.6099L190.815 89.5761L193.26 87.4697C194.084 86.7541 194.592 85.7411 194.672 84.6524C194.752 83.5644 194.399 82.4881 193.688 81.6594L175.743 60.8573L189.556 32.5723L209.575 55.7438C211 57.3984 211.71 59.551 211.549 61.7283C211.388 63.906 210.37 65.931 208.718 67.3589L205.823 69.8513L203.202 66.8176L206.07 64.3466C206.917 63.6123 207.439 62.5725 207.521 61.4544C207.604 60.3363 207.24 59.231 206.51 58.3809L190.478 39.7868L180.492 60.2409L196.711 79.0437C198.117 80.6758 198.818 82.8 198.659 84.9483C198.5 87.0971 197.495 89.0948 195.865 90.5034Z" fill="#0CE3FF"/>
<path opacity="0.61" d="M190.516 96.8175C192.913 96.8175 194.858 94.8734 194.858 92.4759C194.858 90.0778 192.913 88.1343 190.516 88.1343C188.118 88.1343 186.174 90.0778 186.174 92.4759C186.174 94.8734 188.118 96.8175 190.516 96.8175Z" fill="#0CE3FF"/>
<path opacity="0.61" d="M204.896 72.9439C207.293 72.9439 209.237 70.9999 209.237 68.6023C209.237 66.2043 207.293 64.2607 204.896 64.2607C202.498 64.2607 200.554 66.2043 200.554 68.6023C200.554 70.9999 202.498 72.9439 204.896 72.9439Z" fill="#0CE3FF"/>
</g>
<g opacity="0.61">
<path opacity="0.61" d="M142.575 76.3693L139.429 77.72L137.285 72.7191C135.783 73.4759 134.14 73.9101 132.461 73.9948C131.058 74.0671 129.658 73.7879 128.39 73.1822C127.121 72.5765 126.024 71.6637 125.198 70.5269C123.713 68.5865 122.834 66.0352 122.518 62.7441C121.859 56.3121 123.37 49.9661 125.257 44.59L123.493 40.4627C122.957 39.2675 122.127 37.2736 122.92 35.3011C123.215 34.6532 123.663 34.0873 124.227 33.6526C124.79 33.2179 125.452 32.9276 126.153 32.8071C126.854 32.6867 127.575 32.7395 128.251 32.9612C128.927 33.1829 129.539 33.5667 130.033 34.079C132.177 36.4803 130.756 39.8678 130.161 41.315C129.743 42.3173 129.32 43.3786 128.912 44.4827L133.795 55.8887C136.786 53.9377 140.849 54.7256 143.293 57.7325C145.523 60.4822 145.518 64.1645 143.293 67.5681C142.453 68.8277 141.421 69.9469 140.233 70.886L142.575 76.3693ZM127.288 49.3497C126.141 53.4501 125.423 57.9255 125.879 62.3797C126.152 65.0597 126.811 67.0214 127.905 68.4525C128.404 69.1574 129.075 69.7239 129.853 70.0986C130.631 70.4738 131.491 70.6448 132.354 70.5965C133.612 70.5204 134.839 70.179 135.955 69.5942L133.19 63.1622C133.125 63.4661 133.066 63.7824 133.013 64.1109L129.657 63.5749C129.898 61.8512 130.443 60.1831 131.265 58.6491L127.288 49.3497ZM135.157 59.094L138.823 67.5949C139.43 67.0225 139.97 66.382 140.431 65.6868C141.096 64.6737 142.452 62.0795 140.646 59.8551C139.509 58.4561 137.381 57.5717 135.629 58.7241C135.462 58.8346 135.304 58.9584 135.157 59.094ZM126.436 36.223C126.272 36.2822 126.137 36.4008 126.056 36.5553C125.809 37.1663 126.206 38.1633 126.592 39.1067L126.988 40.0232C127.492 38.7904 128.098 37.0592 127.455 36.3302C127.35 36.2463 127.227 36.1877 127.096 36.1589C126.965 36.1301 126.829 36.1318 126.699 36.1641C126.609 36.1738 126.521 36.1935 126.436 36.223Z" fill="#0CE3FF"/>
</g>
</svg>
