<svg width="152" height="244" viewBox="0 0 152 244" fill="none" xmlns="http://www.w3.org/2000/svg">
<path d="M151.165 213.951C152.516 212.203 152.194 209.691 150.447 208.34L121.965 186.322C120.217 184.971 117.705 185.292 116.354 187.04C115.002 188.788 115.324 191.3 117.072 192.651L142.389 212.223L122.818 237.54C121.466 239.288 121.788 241.8 123.536 243.151C125.284 244.502 127.796 244.18 129.147 242.433L151.165 213.951ZM4.54552 0.907417C-4.26167 59.2845 -0.738359 116.797 21.2871 157.894C32.3439 178.525 48.0908 195.057 69.2585 205.351C90.408 215.637 116.662 219.548 148.508 215.472L147.492 207.537C116.838 211.46 92.2172 207.621 72.7574 198.157C53.3157 188.702 38.7189 173.484 28.3383 154.115C7.48892 115.212 3.76255 59.724 12.456 2.10085L4.54552 0.907417Z" fill="white"/>
</svg>
