<svg width="407" height="107" viewBox="0 0 407 107" fill="none" xmlns="http://www.w3.org/2000/svg">
<path d="M403.16 105.001C405.368 104.913 407.085 103.052 406.997 100.844L405.556 64.8731C405.468 62.6657 403.607 60.948 401.399 61.0364C399.192 61.1248 397.474 62.9859 397.563 65.1933L398.843 97.1676L366.869 98.4482C364.662 98.5366 362.944 100.398 363.032 102.605C363.121 104.812 364.982 106.53 367.189 106.442L403.16 105.001ZM7.58993 102.769C47.2514 22.083 221.488 -61.0849 400.287 103.944L405.713 98.065C223.528 -70.0884 42.749 13.1078 0.410419 99.2398L7.58993 102.769Z" fill="white"/>
</svg>
